<svg xmlns="http://www.w3.org/2000/svg" viewBox="0 0 2210.54 1522.51"><defs><style>.cls-1{fill:#fff;}</style></defs><g id="Layer_2" data-name="Layer 2"><g id="Layer_1-2" data-name="Layer 1"><path class="cls-1" d="M1026.11,290.2a2.81,2.81,0,0,0,.76.22l-.52-.33A1.85,1.85,0,0,1,1026.11,290.2Z"/><path class="cls-1" d="M927.07,529.83c6.24,3,6.06-.33,11.37,2.08l-.29-.91a284.16,284.16,0,0,0,37.35-1.46c.39,1.14.77,2.27,1.1,3.39,1.35-1,2.65-1.13,4.51-3.42l-.9,2.8c3.9,2.54,3.73,8.41,5.37,11.17-2-.6-2.45,1.58-2.75,3.49l1.35-.76c-.85,7.28.81,15.73.56,22.23a2.55,2.55,0,0,1-1.47,2l1.58,6.23c-2.74-.48-2.41,5.17-4.12,2.2,3.23,4.66,1.25,9.4,4.6,13.85A205,205,0,0,0,992.39,642l1-.41c1.81,5.76,7.2,10.83,5.41,17.83,3.65,5,5.58,12.1,11.27,14.09a20.84,20.84,0,0,0,2.37,7c-.91.29-1.81.62-2.71.94-2,.68-4,1.41-6.11,2a35.12,35.12,0,0,1-6.48,1.33,23.52,23.52,0,0,1-7.11-.62,60,60,0,0,1-6,2.12c-2.09.57-4.22,1.12-6.24,1.75-4,1.24-7.6,2.84-9.41,5.42a42.66,42.66,0,0,0-10.56.88,58,58,0,0,1-10.6,1c1.65,3.17-8.79,1.89-5.11,4.79,5,4.88,5.89,1.63,10.21,5.62v-1c22,8,45.42,11.93,69.19,12.88,15.75-2.71,33-2.13,49.17-5.23a235.08,235.08,0,0,0,49.44-15.87c3.2-1.8,6.33-.28,9.67.1,3.25-1.25,6.68-2.72,10.3-4l5.52-2,5.6-2.22a144.69,144.69,0,0,0,22.35-10.5,4.27,4.27,0,0,1-.76.24c7.55-4.12,14.8-4.71,22.16-9.91-.46-.64.68-1.43,1-2.17,1.58,1.12,12-7.64,20.29-19.27a115.59,115.59,0,0,0,10.19-17c2.45-5,4-8.68,4.85-9.21.29-1,.62-1.94,1-2.92,4.94-8.66,10-17.92,13.1-27.74s4.56-20,2.85-28.87c-1.15-1.81-2.31-3.69-3.58-5.43a27.34,27.34,0,0,0-3.89-4.62c.78-3.38-2.39-3.09-3.11-6.64,2.06-5.61,1.48-9.71.49-11.39s-2.35-1.23-2.56,1.51c-4.06-6.54-7.4-13.35-11.56-18.63a77.44,77.44,0,0,0-7.09-6.11c-2.19-1.52-2.28-3.37-1.93-5.53-2.73-2.06-3.41-3-4-4.17a17.37,17.37,0,0,0-3.5-5.16c.1-.78-.88-1.71-2.42-2.67a39.58,39.58,0,0,0-5.86-2.66c-4.36-1.64-8.9-2.66-9.5-3.54l1.15.28c-3.27-2.31-5.51-5.14-7.93-7.9s-5-5.46-8.71-7a94.12,94.12,0,0,0-24.57-8.47,53.77,53.77,0,0,1,9.8-4.13,46.71,46.71,0,0,0,10.15-4.63c-.44-.67.62-1.33.93-2,.77.65,3.46-.87,7.36-3.87a116.64,116.64,0,0,0,13.9-12.79,96.59,96.59,0,0,0,12.73-17.12c3.18-5.47,4.82-9.93,5.75-10.57.36-1.1.66-2.28,1-3.46a80.38,80.38,0,0,0,8.06-34.05c.16-11-1.7-20.76-5.15-28.1-3-2.54-6-5.35-9-6.94.31-3.1-2.73-2.17-3.73-5.2,1.53-5.3.94-8.77-.07-10.22s-2.31-.85-2.46,1.66c-4.13-5.5-7.18-11.85-11-17-2.2-2.12-4.35-4.19-6.79-6.16-2.06-1.64-2.18-3.43-1.73-5.62-2.62-2.24-3.37-3.23-4-4.45a17.18,17.18,0,0,0-3.59-5.5c.09-.8-.91-1.83-2.56-2.9a42.66,42.66,0,0,0-6.37-3.07c-2.47-.88-4.82-1.75-6.86-2.3s-3.46-1.07-3.86-1.52l1.31.28a63.47,63.47,0,0,1-5.32-3.79c-1.62-1.38-3.23-2.69-4.9-4a27.16,27.16,0,0,0-11.63-5.94c-12.73-3.18-24.57-2.46-34.07-1.89s-18.82,1.33-27.41,1.31c0,2.75,3.75-.8,4.13,2.83-10.13,0-20.49-2.88-30.71-2.83a17.47,17.47,0,0,1-5.08-2.75c-3.31-.86-1.86,1.41-4.26,1.17l-.45-2.46c-3.38,2.2-5.23-2.5-8.46-1.31-.13,1-1.32,1.2-2.49,1.18-.19-2.63-3.58.36-3.53-2l0,.2a3.9,3.9,0,0,1-2.08-.22c-1.29,1-13.45,8.83-14.75,10l-.65-.4c-1.87.17-2.57,2.16-1.46,2.58l-2.31,0,.25-.19-2.3,0a2.13,2.13,0,0,1-.38-2.6,4.56,4.56,0,0,1-4,1.15,74.61,74.61,0,0,1,12.23,6c-1.51,1-4.39-.27-6.06.1-2.1-1.64-6.31-2.91-9.59-3.95-.7.19-1,3.14-2.71,1.93-.89-2-1.81.17-3.22-1.23,1.48-1.16,3-.75,4.56-.72-.38-2.38-3.86-1.44-5.12-2.05-.54.78-3.58.15-5.43.91.46-1.53-.37-1.66-1.33-1.89-.17.16-.37.33-.57.5.2-.17.38-.34.55-.5a3,3,0,0,1-1.43-.68c-1.28-.21-2,.75-1.49,1.54a1.19,1.19,0,0,0,.5,1.18c-2.9,2.3-6.27,4.73-5.54,4.74a.8.8,0,0,1,.4,1,.75.75,0,0,0-.19.72c-.15.55-.26,1.05.32,1.24l.49-.66c5.62.35-4.23,14,2.27,14.39-2.95-2.84.78-3.1,3.7-3.59a5.91,5.91,0,0,0,3.86,3.08c1.82-.32,1-1.14,1.33-1.91,1.05.62,3,1.08,2.84,2.66,1.33-1.93,2.33,1.08,4,.35,1.46-.94-.15-.8.88-1.76,2.27.09,5.44.2,7.26.47.77,1.43,3,3.93,1.59,6.28-3.44-.14,1.12-3.77-2.42-3.1,1.7,3.28-3.11,1.07-3.63,3.65,1.21,1.45,3.51,1.35,5.41.84l-.4-.43c1.67-.52,5-1.39,6.95.31-.37,1.2.47,2.05-.76,2.4l2.35.1c.28-.38.56-.78-.13-1,1.06-1,2.19-.51,3.07.14.06.23.52.17,1.22-.07.77.79-1.57,1.35-1,2.37.87,1,.81-.07,1.71.65a36.91,36.91,0,0,1-.82,4.86c-1.47.47-4.08,1.9-6.36.86.32-2.31,3.72.88,3.23-1.52-3.36,1-.92-2.13-3.47-2.56-1.51.76-1.53,2.31-1.11,3.61l.45-.26c.44,1.14,1.14,3.42-.66,4.66-1.18-.29-2.06.25-2.35-.59l-.23,1.57c.38.2.76.4,1-.05.91.74.4,1.48-.29,2.05-1.25.18,5.24,8.36,4.46,8.11,0,.54-.39.88-.69,1.21-.93-2.83-4.06-9.19-3.75-8-1.37,1,6.25,12.84,3.88,13.54.09.84.36,1.85,1.62,1.66-.61,1.41-2.41-.43-3.6.58.2,0,.63-.08.59.24l-1.6,1c2,2.2-.59,5.43,2,7.74-1.37-.67-3.77-1.43-5-2.92l.66-.26c-.39-.21-.83-1.43-2.09-1.39-.84,1.41-.61,2.61.63,4.09a9.36,9.36,0,0,1-1,.81c.17,0,.3,0,.49,0-.78.48-.91.43-1.4.26a1.45,1.45,0,0,1-.29-.11c-3.71.89,2.35,5.54.43,8.11.52.76.63.07,1.34,1a34.61,34.61,0,0,0-3.46,7.19c1.59.88,2.23.95,3.9-.12l-.52,2.08c-4.26-1.89-4.06,3.88-8.31,1.8a2.11,2.11,0,0,0-.48,3c1.07.12,2.79.3,2.78,1.77a32.32,32.32,0,0,1-2.27,3.23c-1.39.4-1.94-.22-3-.15,1.79,2.61-3,2.27-2.76,4.73.41,1.53.58,4.57,3,4.64-.11,2.07-1.9,2.07-3.88,1.87l-.28,1.68a82.6,82.6,0,0,1,1.67-16.81c-8.3,12.27-15.64,26.77,2,36.26-9.39,1-13.76,12.94-11.44,13.18a49.63,49.63,0,0,1,4.28,7.51c7.28,16,4.1,33.4.47,51.4-1.15,6.33-2.39,19.55-3.84,31a24.64,24.64,0,0,1-3.64.45c-3.24,2.51-7.36,4.77-10.9,7.18s-6.57,4.8-7.53,7.89c-8.38,2.33-11.35,5.65-19.6,8.4C932.93,526.14,922.62,528.28,927.07,529.83Zm43.68-255.7c-.73,0-.57-.69,0-1.63A2.2,2.2,0,0,1,970.75,274.13Zm4.06-6.56.52-.59c-.74-.86-2.92-.4-4.15-.24,0,1,.49,1.07.48,1.51a4.8,4.8,0,0,1-1.45.95,5.52,5.52,0,0,0-.53.18l-.33-.17a5.2,5.2,0,0,1-1.17.51,1.11,1.11,0,0,1-.77-.52c.26-.39.89-.18,1.33-.17-1,0,1.47-2.31,3.88-4.51,1.12.74,3.32.68,3.18,1.92.14-.16.24-.29.32-.4l.81.48A4.85,4.85,0,0,1,974.81,267.57Zm56.12,22.4-.4-.33.4.32Zm-4.06.45.38.23-.52.52a2.94,2.94,0,0,1-.94-1.45l.56.37a1.28,1.28,0,0,0,.6-1.18c.55,0,.92.12,1.06.4l.3,0C1028,289.9,1027.67,290.51,1026.87,290.42Zm135.4,226.08c-1.48,4.49,0,9.12,1.63,12.45s3.64,5.5,4.44,4.68a27.9,27.9,0,0,1,8.58,1.7c8.6,3.11,15.23,10.33,18.45,18.77s3.13,18.19.73,26.73c-1.08,4.79-3.71,13.33-8.68,19.4a46.66,46.66,0,0,1-8.64,8.56,45.14,45.14,0,0,1-8.87,5.3c-1.49.62-2.82,1.32-4.34,2,2.67-.8,2.61-.83,5.21-1.71a67.18,67.18,0,0,1-13.41,16.15c1.68.62,2.5,1.71,5.93,1.93-1.15.33-2.38.6-3.55.9-1,5-8.18,8.25-11,11.19-.07-2.2-2.91-1.39-5.45-.7l1.47.85a151.5,151.5,0,0,0-14.7,5.71c-5,1.91-9.71,4.1-14.11,5.18a3.61,3.61,0,0,1-3.08-.61c-2.61,1.32-5.2,2.73-7.88,3.91-.08-2.66-6.77-.74-4.46-2.83-5.32,4.43-12,4-17.15,8.49-18.52,4.05-38.14,8.08-58,12a243.78,243.78,0,0,0,6.3-38.46c-2.4-10.05-.44-20.94-1.16-31.39a238.82,238.82,0,0,0-5.21-33.05c-.8-2.31,1.56-4,2.88-5.93-1.27-8.87-.31-20.16-1.86-30.16a2,2,0,0,1-.1.49c-.46-5.32,2.43-9.3,2-14.49-.8,0-.85-.78-1.27-1.17.88-.22.91-2,.47-4.71,8.8-2.58,17.79-5,26.27-8.31,9.3-3.81,18.82-8.28,27.66-12.9a7.28,7.28,0,0,0,3.22-1.45,13,13,0,0,1,1.25.91,3.16,3.16,0,0,1-.09-.48c.77.71.7.85.5,1.36a.91.91,0,0,1-.11.3c.8,1.79,2.66,1,4.82,0s4.64-2.13,6.49-1.28c1-.59.07-.64,1.36-1.42,3.78,1.2,6.3,2.46,10.1,3.22,1.21-1.62,1.33-2.26-.16-3.9,1,.17,1.95.28,2.91.52-2.63,4.15,5.22,4.26,2.26,8.39a3.39,3.39,0,0,0,4,.63c.21-1.05.55-2.79,2.51-2.67a42.49,42.49,0,0,1,4.09,2.66c.38,1.43-.47,1.91-.48,3,3.51-1.42,2.63,3.15,5.63,3.4,1.94-.11,5.69.29,6.24-2.09,2.55.58,2.14,2.4,1.52,4.27l1.92.71-20.45-4.5c7.59,4.75,14.9,9.53,21.52,12a31.52,31.52,0,0,0,5,1.26,25,25,0,0,0,5.19,0C1154,520.88,1157.93,519.23,1162.27,516.5Zm-117.6-227c-.92,1.42-1.93,3.87-4.07,5.22l-.42-.64c-.3.4-2.09.93-2,2.19a6.41,6.41,0,0,0,6-.94,12.09,12.09,0,0,1,1.25,1c0-.17,0-.31-.06-.5.76.75.69.88.46,1.39a1.14,1.14,0,0,1-.14.3c1.5,3.63,8.1-2.76,12-1,1.1-.58.07-.64,1.44-1.41a66.23,66.23,0,0,0,10.86,2.92c1.22-1.66,1.29-2.3-.37-3.89l3.12.37c-2.6,4.39,6,3.76,3.08,8.16.95.93,2.81,1,4.5.26.12-1.08.31-2.81,2.48-2.91a48.75,48.75,0,0,1,4.92,2c.66,1.35-.23,1.95-.07,3,3.78-2,3.53,2.86,7.16,2.41,2.27-.52,6.75-.91,6.72-3.35,3,0,3,1.76,2.84,3.75l2.31.19c-3.62.22-7.84.28-12,.17s-8.44-.36-12.66-.65a139.89,139.89,0,0,0,14.41,5A74.17,74.17,0,0,0,1110,315c3.89.25,7-.11,9.72-1.48s5.2-3.8,8.54-7.31a18.12,18.12,0,0,0-.1,6.38,26.86,26.86,0,0,0,.49,2.73c.2.82.43,1.53.66,2.28a9.49,9.49,0,0,0,.76,1.78,6,6,0,0,0,.81,1.35c.56.59,1.12.85,1.51.44a14.33,14.33,0,0,1,3.86.14,16.39,16.39,0,0,1,3.9,1.06,30.39,30.39,0,0,1,11.37,8.31,60,60,0,0,1,8.89,13.6,110.65,110.65,0,0,1,6.45,16.41,58.57,58.57,0,0,1,2.65,15,27.22,27.22,0,0,1-.51,7.68,9,9,0,0,1-1.14,2.76,10.86,10.86,0,0,1-1.71,2,36.69,36.69,0,0,1-7.25,5.36,62.55,62.55,0,0,1-10.08,4.73c-1.69.66-3.47,1.35-5.31,2.12l6.23-1.8c-1.23,1.52-2.59,3.06-4,4.59s-3,3.09-4.47,4.57c-3,3-5.92,5.86-9,8.4,1.86.54,2.71,1.59,6.46,1.59-1.31.39-2.61.81-3.93,1.16-1.37,5.12-8.9,9-11.7,12.28-.17-2.2-3.16-1.16-5.76-.19l1.59.71c-4.88,2-9.85,4.72-14.76,7.29l-7.18,3.84c-2.36,1.16-4.64,2.24-6.81,3.13a3.8,3.8,0,0,1-3.23-.17c-2.52,1.72-5.06,3.4-7.64,5-.41-2.65-7.11.31-4.91-2.18-2.91,3.1-6.49,4.62-9.9,6.43a3.65,3.65,0,0,0-2.62.2c0,1-1.28,1.36-2.53,1.49-.5-2.59-3.79.81-4-1.59v.2a4.79,4.79,0,0,1-2.25.06c-.63.59-3.9,3.29-7.1,6-3,2.47-5.75,5.09-6.65,6l-.37.15-.57-.22a2.46,2.46,0,0,0-1.5,1.07l-4.52,1.88a2.32,2.32,0,0,1-.37-2.12,4.82,4.82,0,0,1-3.87,1.9c1,.17,2.12.39,3.26.63l-5.31,2.23-.63-.07c2.09-5.71,4-11.23,3.63-16.2-1.77-2-3.31-4.34-5.31-6.06,1.61-1.67-1.5-2-1.07-4,7.51-5.09,4.37-8.07,1.71-5.44-1-4.19-.35-8.39-.61-12.11-.54-1.73-1.12-3.44-1.77-5.18-.63-1.48.49-2.3,2.27-3.05-1.07-3.78.79-2.66,1.55-6.63,2.62-1-4.18-9.94-3.38-11.06l.38.65c.46-4.59,5.55-7.64,5.77-12.12,1.93-12.45,0-26.05.88-37.58-2.75-.12.61,2.54-3,2.68.48-6.81,3.89-13.67,4.35-20.53a12.28,12.28,0,0,1,3-3.32c1-2.19-1.31-1.29-1-2.9l2.49-.22c-2-2.34,2.75-3.43,1.72-5.64-1-.11-1.13-.92-1-1.71,2.63,0-.18-2.41,2.22-2.3l-.2,0c0-.48-.12-.81.33-1.39-.93-.9-8.15-9.33-9.27-10.24l.44-.43c-.08-1.26-2-1.8-2.51-1.06l.15-1.56.18.18.15-1.54a2.88,2.88,0,0,1,2.61-.17c-.91-.88-1.41-1.86-.94-2.74a49,49,0,0,1-6.59,8c-.9-1,.5-2.93.21-4.07,1.74-1.35,3.22-4.14,4.42-6.31-.15-.48-3.09-.8-1.8-1.88,2-.53-.07-1.23,1.4-2.12,1.08,1,.59,2,.49,3.08,2.39-.17,1.62-2.54,2.3-3.37-.75-.39,0-2.41-.64-3.68,1.47.36,1.66-.16,1.93-.77a1.16,1.16,0,0,0,.51,1.08c0-.18-.11-.55.22-.6a5.07,5.07,0,0,0,.45.33l1.18,1.19C1036.45,289.92,1041.38,292.23,1044.67,289.47ZM1032,290.74l-.33-.22h.11Zm-.89-2.81a1.23,1.23,0,0,0-.66,0,1.53,1.53,0,0,0,0-.36A1.31,1.31,0,0,1,1031.09,287.93Z"/><path class="cls-1" d="M975.76,261.62l-.82.78h0C975.27,262.12,975.54,261.86,975.76,261.62Z"/><path class="cls-1" d="M975.8,266.44c-.13.16-.29.34-.47.54a.8.8,0,0,1,.18.23A1.9,1.9,0,0,0,975.8,266.44Z"/><path class="cls-1" d="M1074.42,448.55c.13-.13.27-.26.4-.41C1074.66,448.29,1074.53,448.43,1074.42,448.55Z"/><path class="cls-1" d="M976.34,260.52c.12.21-.12.6-.58,1.1C976.62,260.77,977,260.28,976.34,260.52Z"/><path class="cls-1" d="M1100.52,656l.46-.38C1100.8,655.8,1100.65,655.92,1100.52,656Z"/><path class="cls-1" d="M1299.91,346.67c-.21-.29-.45-.61-.7-1v0C1299.46,346.09,1299.7,346.4,1299.91,346.67Z"/><path class="cls-1" d="M1301,347.39c-.21.12-.58-.18-1-.72C1300.68,347.68,1301.13,348.13,1301,347.39Z"/><path class="cls-1" d="M1294.37,345.88a1.81,1.81,0,0,0,.73.39l-.49-.56A1.31,1.31,0,0,1,1294.37,345.88Z"/><path class="cls-1" d="M1468.89,488c-.37-13.69-1.36-27.22-2.93-40.75l-1,.61c-1.32-9.46-6.26-18-3.88-29.28-3.22-8.32-4.53-20-10-23.51-.29-9.41-3-13.3-4-22.58-2.94,2.23-2.93-9.11-5.36-4.7-4.26,5.9-.92,6.41-4.38,11.42l1-.11a609,609,0,0,0-11.8,72.42,163.71,163.71,0,0,1-.13,25.33c-.55,8.55-1.35,16.92-1.64,25-.34,17.45-1,35.44-2.69,49.28,0,3.45-3.16,4.92-5.2,7.08a81.7,81.7,0,0,1-7.16,18.37l-2.51,4.49c-.84,1.43-1.72,2.65-2.52,4s-1.8,2.59-2.67,3.91l-1.32,2-1.44,1.88a3.48,3.48,0,0,1,.5-.38,21.32,21.32,0,0,1-3.41,3.27c-1.28.85-2.56,1.59-3.82,2.32s-2.63,1.29-3.88,2-2.5,1.6-3.8,2.5c.48.65-.33,1.23-.51,1.85-1.42-1.17-8.24,5.4-16.71,10.21s-18.12,6.77-19,5.42a18.33,18.33,0,0,1-2,.31c-1.52-.54-3-1.15-4.47-1.76s-2.68-1.72-4-2.55a38.76,38.76,0,0,1-6.31-6.51c-3.62-4.69-5.9-9.55-9.24-13.61-1.36-.45-2.76-1-4.19-1.58a31.79,31.79,0,0,0-4.2-1.74c.34-2.61-2.52-1.58-3.4-4.15,1.93-4.75,1.92-7.48,1.26-8.78s-2.09-.86-2.67,1.31c-3.09-5-4.29-10.95-5.9-16.14-1.21-2.27-2.3-4.65-3.55-7-1.07-2-.24-3.5,1.27-4.94-2.12-5.44,0-4-.28-10.25,1.17-1-.49-4.59-2.39-8.26s-3.84-7.42-3.57-8.35l.52.95c-.6-7.2,4-12.57,3.42-19.52-.09-19.5-3.15-40.73-2.63-59.06-2.76-.12.7,4-2.94,4.32.19-10.82,3.51-21.76,4-32.7a18.42,18.42,0,0,1,3-5.26c1.07-3.49-1.29-2.08-.91-4.64l2.49-.32c-2-3.77,2.8-5.42,1.85-9-1-.2-1.1-1.49-1-2.75,2.64,0-.1-3.87,2.3-3.63l-.2,0a4.46,4.46,0,0,1,.37-2.21c-.91-1.44-7.76-15.18-8.83-16.7l.46-.67c0-2-1.95-3-2.46-1.8l.23-2.5.17.29.23-2.49a2,2,0,0,1,2.62-.19,5.24,5.24,0,0,1-.8-4.44,84.56,84.56,0,0,1-7,12.74c-.85-1.73.65-4.74.42-6.59,1.81-2.14,3.43-6.59,4.76-10.06-.13-.78-3-1.41-1.69-3.12,2.06-.79,0-2,1.51-3.39,1,1.71.48,3.33.32,5,2.4-.2,1.76-4.06,2.49-5.38-.74-.65.16-3.9-.43-6,1.49.65,1.68-.25,2-1.27l-.45-.67c.16.23.31.45.46.65a3.42,3.42,0,0,1,.8-1.5c.33-1.38-.56-2.3-1.39-1.76a1.16,1.16,0,0,0-1.23.44c-2-3.37-4.15-7.27-4.23-6.47a.76.76,0,0,1-1,.34.71.71,0,0,0-.7-.26c-.53-.22-1-.38-1.26.23l.61.59c-.85,6.1-13.51-5.88-14.53,1.16,3.09-3,3,1.14,3.24,4.37-1,.27-2.56,1.64-3.42,3.93.16,2,1.05,1.22,1.79,1.62-.71,1.09-1.34,3.19-2.9,2.85,1.81,1.63-1.28,2.45-.71,4.35.81,1.67.82-.09,1.68,1.11-.28,2.47-.68,5.93-1.1,7.88-1.49.71-4.17,2.95-6.4,1.18.44-3.74,3.68,1.56,3.31-2.37-3.42,1.57-.81-3.48-3.32-4.28-1.56,1.2-1.67,3.72-1.31,5.84l.46-.4c.38,1.87,1,5.61-.9,7.57-1.16-.51-2.08.34-2.32-1l-.31,2.56c.37.34.74.68,1-.05a2.62,2.62,0,0,1-.39,3.34c-1.25.26,4.88,13.78,4.12,13.34a3.59,3.59,0,0,1-.74,2c-.82-4.63-3.68-15.09-3.41-13.19-1.44,1.56,5.73,21.08,3.37,22.17.06,1.37.3,3,1.57,2.73-.64,2.3-2.41-.73-3.61.9.2,0,.63-.13.58.39L1265,406.8c1.94,3.62-.72,8.87,1.89,12.65-1.36-1.1-3.78-2.36-5-4.8l.67-.42c-.38-.34-.8-2.35-2.06-2.3a7.6,7.6,0,0,0,.57,6.72,13.46,13.46,0,0,1-1,1.32,3.79,3.79,0,0,1,.49,0c-.78.79-.91.7-1.41.41a.84.84,0,0,1-.28-.17c-3.69,1.45,2.29,9.09.45,13.32.53,1.25.63.12,1.35,1.66-1.41,4.34-2.57,7.33-3.29,11.89,1.63,1.42,2.27,1.51,3.89-.27l-.44,3.43c-4.32-3-3.9,6.5-8.23,3.17-.94,1-1.11,3.11-.35,5,1.08.16,2.8.41,2.89,2.83-1.29,3.43-.8,2.61-2.06,5.46-1.36.72-2-.28-3.06-.12,2,4.26-2.9,3.91-2.4,8,.55,2.55,1,7.63,3.44,7.6.08,3.47-1.69,3.58-3.7,3.37l-.06,2.84a179.15,179.15,0,0,1,.24-28.25c-3.77,10.38-7.17,21.91-7,32.75a37.65,37.65,0,0,0,3.13,15.36A30,30,0,0,0,1254,520.71c-9.26,2.73-10.76,23.76-8.3,23.83a118.53,118.53,0,0,1,6.37,12.1c6.18,13.35,10.62,27.7,16.62,43.14a175,175,0,0,0,11.25,23.79A102.39,102.39,0,0,0,1298.23,647a82.72,82.72,0,0,0,20.16,13.48,93.67,93.67,0,0,0,31.39,8.18,115,115,0,0,0,31.16-2.2c2.34-.42,4.45-1.09,6.57-1.61s4.15-1,6-1.65c3.65-1.24,7-2.27,9.67-3.25,3-1.23,6.1-2.48,9.12-3.9-5.22,2-5.24,1.93-10.45,3.74,11.29-8.34,19.46-17.34,26.73-26.12-2.4.3-3.5-.37-8.16,1.15,1.63-.93,3.18-2,4.78-3,1.41-6,9.11-14.42,11.08-19.71.44,1.06,1.43.87,2.58,0a28.67,28.67,0,0,0,3.65-4l-2,.49c1.09-1.42,2.23-2.91,3.23-4.42s1.84-3,2.73-4.62a106.41,106.41,0,0,0,4.79-9.7c1.36-3.29,2.65-6.56,3.8-9.7s2.26-6.15,3.16-8.94a5.37,5.37,0,0,1,2.52-3c.71-3.77,1.08-7.52,1.58-11.25,2.34,1.47,4.29-7.6,4.84-3.49-1-8.63,2.19-16.3,0-24.23A273.8,273.8,0,0,0,1468.89,488ZM1293.11,336.88c.36.32.1,1,.05,1.46.11-1,2.16,1.81,4.14,4.64-.84,1.15-1,3.56-2.2,3.29l.37.39-.55.83a5.51,5.51,0,0,1-.85-2.4l.54.62c.92-.73.66-3.15.61-4.5-1,0-1.11.44-1.55.38a5.46,5.46,0,0,1-.81-1.66c0-.2-.08-.4-.13-.59l.2-.35a6.25,6.25,0,0,1-.41-1.32A1.19,1.19,0,0,1,1293.11,336.88Zm-5.21,3.18c.08-.79.73-.56,1.62.17A2,2,0,0,1,1287.9,340.06Z"/><path class="cls-1" d="M1467.16,553.43c0,.21,0,.42.07.64C1467.21,553.82,1467.18,553.62,1467.16,553.43Z"/><path class="cls-1" d="M1493.35,636.53c-.28-.32-.54-.59-.77-.82l.76.83Z"/><path class="cls-1" d="M1498.15,636a1.67,1.67,0,0,0-.77-.31l.55.49A.76.76,0,0,1,1498.15,636Z"/><path class="cls-1" d="M1492.58,635.71c-.87-.91-1.37-1.31-1.12-.62C1491.67,635,1492.06,635.22,1492.58,635.71Z"/><path class="cls-1" d="M1493.34,636.54a3,3,0,0,1-.67,1.49c-.21,1.34.76,2.14,1.54,1.56a1.22,1.22,0,0,0,1.19-.53c2.32,3,4.76,6.51,4.77,5.73a.77.77,0,0,1,.95-.41.75.75,0,0,0,.72.19c.55.16,1.05.26,1.24-.34l-.66-.5c.33-5.79,14,4.28,14.38-2.39-2.83,3-3.11-.79-3.61-3.78a6,6,0,0,0,3.07-3.95c-.33-1.85-1.14-1.05-1.92-1.37.63-1.06,1.1-3.07,2.68-2.88-1.93-1.37,1.09-2.38.38-4.09-.93-1.51-.81.13-1.76-.92.09-2.32.24-5.56.54-7.41,1.44-.77,4-3,6.31-1.53-.19,3.5-3.76-1.19-3.14,2.42,3.31-1.69,1,3.18,3.6,3.74,1.46-1.22,1.41-3.55.91-5.49l-.43.41c-.5-1.71-1.32-5.14.42-7.06,1.19.4,2.05-.44,2.38.82l.15-2.38c-.38-.29-.77-.59-1,.1-.94-1.09-.46-2.22.21-3.1,1.23-.28-5.55-12.5-4.73-12.14a3.13,3.13,0,0,1,.66-1.84c1,4.26,4.33,13.8,4,12,1.29-1.47-6.65-19.26-4.24-20.38-.1-1.27-.38-2.8-1.64-2.49.6-2.15,2.42.63,3.59-.91-.19,0-.63.13-.59-.36l1.59-1.47c-2-3.32.59-8.2-2-11.68,1.37,1,3.77,2.17,5,4.4l-.67.39c.39.32.83,2.16,2.09,2.1a6.56,6.56,0,0,0-.62-6.16,12.76,12.76,0,0,1,1-1.21c-.17,0-.3,0-.49,0,.78-.73.91-.65,1.4-.38a.89.89,0,0,1,.29.15c3.69-1.3-2.27-8.32-.32-12.18-.51-1.15-.63-.11-1.32-1.54a68.34,68.34,0,0,0,3.66-10.74c-1.56-1.36-2.2-1.48-3.9.08l.6-3.11c4.17,2.94,4.22-5.71,8.38-2.47,1-.88,1.25-2.73.61-4.49-1.07-.21-2.79-.54-2.7-2.73,1.53-3,1-2.29,2.44-4.76,1.41-.54,1.93.4,3,.34-1.64-4,3.13-3.27,3-6.92-.3-2.3-.26-6.82-2.69-7.05.25-3.08,2-3,4-2.59l.41-2.48a208.57,208.57,0,0,1-2.73,24.91c8.88-18.06,17.41-38.66.88-54,9.44-.86,15.24-18,13-18.44a72,72,0,0,1-3.15-10.81c-2.28-11.12-1.08-22,3.07-30.61a36.19,36.19,0,0,1,8.06-10.94,26.48,26.48,0,0,1,10-6,23.13,23.13,0,0,1,6.49-1.39,22.25,22.25,0,0,1,8.49,1.16,32.61,32.61,0,0,1,9.31,4.77,26.67,26.67,0,0,1,6.14,6.2c.72,1,1.43,2,2.08,3.07a36.68,36.68,0,0,0-1.93-3.94,44.62,44.62,0,0,1,8.09,2.68,37.13,37.13,0,0,1,7.61,5.22c.51-1.6,1.58-2.55,1.51-5.73.41,1,.76,2.09,1.11,3.15,5,.2,8.43,6.76,11.35,9.34-2.19.2-1.34,2.83-.71,5.25l.87-1.43c3,8.9,7.67,19.56,9.42,28.68a3.65,3.65,0,0,1-.82,3.07c1.14,2.76,2.2,5.62,3.26,8.48-2.81-.17-1,7.74-3.47,3.85,4.36,6.05,3.45,13.12,7.59,19.08,3.42,22.92,6.86,47.66,11.71,72.23l1-.61c1.94,8.58,7.32,16.26,5.45,26.82,3.58,7.58,5.31,18.38,10.94,21.52.6,8.76,3.38,12.32,4.65,20.93,2.88-2.14,3.21,8.41,5.5,4.25,4.08-5.6.73-6,4-10.74l-.95.12a402.48,402.48,0,0,0,8.51-68.86c-2.69-15.61-1.5-32.82-3.69-49.32-2.56-17.71-7.1-36.8-12.45-51.45-1.5-3.46.24-6.57.81-10-2.24-7-4.46-15.17-7.51-23.65a109.83,109.83,0,0,0-12.14-24.89c.15.3.27.62.35.83-5.16-8.21-7-16.1-14.37-23.52-.56.57-1.7-.58-2.55-.86.38-1-2.48-4-7.32-7.37a78.94,78.94,0,0,0-19-9.55,93,93,0,0,0-21-4.67c-6-.68-10.41-.65-11.29-1.24-1.1.09-2.22.16-3.37.2a105.23,105.23,0,0,0-17.22-.45,73.55,73.55,0,0,0-17.68,3.35c-11.43,3.68-21.14,10.34-27.16,18.06-1.37,4.39-2.76,9-2.85,12.89-3,1.89-.74,4-2.89,7.08-5.58,2.47-8.2,5.84-8.78,7.74s.73,2.58,2.85.83c-2,7.54-4.72,14.55-5.9,20.94-.14,3-.12,6,0,9,.22,2.53-1.11,3.7-3,4.66.17,6.36-1.42,4.28-2.93,10.62-1.39.63-.79,4.76.14,8.76s2.11,8,1.64,8.82l-.31-1c-1,7-6.45,11.28-7.17,18.18-3.25,19.07-2.25,40.18-3.59,58,2.75.24-.5-4,3.15-4.06-.79,10.46-4.35,21-4.86,31.63a18.61,18.61,0,0,1-3,5.14c-1,3.4,1.31,2,1,4.49l-2.49.34c2.07,3.63-2.71,5.35-1.65,8.78,1,.17,1.14,1.42,1.07,2.64-2.63.1.25,3.76-2.16,3.61l.2,0a4.29,4.29,0,0,1-.29,2.16c.91,1.41,8.44,14.31,9.61,15.67l-.42.67c.13,1.94,2.13,2.71,2.56,1.56l-.07,2.4-.19-.27-.07,2.39a2,2,0,0,1-2.6.35,4.88,4.88,0,0,1,1.09,4.19,74.56,74.56,0,0,1,6.18-12.55c.94,1.58-.37,4.53,0,6.27-1.66,2.13-3,6.48-4.07,9.87.18.73,3.14,1.11,1.92,2.83-2,.9.16,1.88-1.25,3.32-1.15-1.54-.73-3.12-.7-4.74-2.38.38-1.45,4-2.07,5.31.78.56.12,3.72.9,5.64-1.53-.48-1.65.38-1.88,1.38l.47.55C1493.66,636.89,1493.5,636.72,1493.34,636.54Zm11.76,4.34c0,.76-.69.6-1.64,0A2.19,2.19,0,0,1,1505.1,640.88Zm-7.72-5.22c-.16-.14-.29-.25-.4-.33l.48-.84a5.14,5.14,0,0,1,1,2.2l-.58-.54c-.86.77-.39,3-.23,4.3,1,0,1.07-.51,1.52-.5a5.65,5.65,0,0,1,1,1.5,5.05,5.05,0,0,0,.18.55l-.17.34a6.31,6.31,0,0,1,.52,1.21,1.13,1.13,0,0,1-.52.8c-.39-.27-.19-.92-.17-1.37,0,1-2.32-1.52-4.53-4C1496.21,637.8,1496.14,635.52,1497.38,635.66Z"/><path class="cls-1" d="M1712,622.65c.21-.08.58.18,1,.65C1712.28,622.44,1711.82,622,1712,622.65Z"/><path class="cls-1" d="M1713,623.3c.21.24.43.5.67.8v0A9.52,9.52,0,0,0,1713,623.3Z"/><path class="cls-1" d="M1841.36,428.88a31,31,0,0,1,10.67,2.44,10.81,10.81,0,0,1,3,2,14.4,14.4,0,0,1,2,2.45,21.44,21.44,0,0,1,2.83,6l.56,1.7c.18.62.37,1.23.59,1.82-.18-1.11-.26-1.67-.35-2.23l-.4-2.06c4.82,2.42,9.88,7.16,13.69,12.87.86-1.61,2-2.22,2.67-5.56l.44,3.55c4.82,1.55,7.12,9.2,9.73,12.49-2.19-.25-1.75,2.86-1.32,5.59l1-1.42c1,5.14,2.67,10.52,4.21,15.81a143.35,143.35,0,0,1,4,15,3.72,3.72,0,0,1-.81,3.1l3.29,8.46c-2.72-.14-1.07,7.15-3.19,4.22,2,2.87,2.84,6,3.7,9.1s1.76,6.41,3.85,9.34c2,11.27,3.81,22.93,6,34.72,2.05,11.82,4.42,23.77,6.86,35.71l1-.6c1,4.18,2.77,8.13,4.13,12.35a26.13,26.13,0,0,1,1.12,13.83c1.77,3.73,2.92,8.26,4.37,12.28s3.17,7.54,5.87,9.22a43.36,43.36,0,0,0,1.52,10.55,61.94,61.94,0,0,1,1.79,10.55c3-1.9,2.54,8.65,5.16,4.72,4.5-5.31,1.19-6,4.85-10.55l-1,.06c6.43-22.4,9.52-45.6,10.24-69.13-2.82-15.58-2-32.62-4.51-48.76A282.14,282.14,0,0,0,1936,498.71c-1.45-3.33.31-6.31.93-9.57-1.08-3.29-2-6.85-3-10.53s-2-7.52-3.06-11.41c-2.24-7.75-4.38-15.53-7.73-23.26a5.61,5.61,0,0,1,.16.8c-3.2-8.17-2.94-15.73-7.7-24.21-.69.41-1.45-.91-2.17-1.35.31-.41,0-1.45-.76-3a43.14,43.14,0,0,0-4-5.79,71.93,71.93,0,0,0-16.3-14.79,69.9,69.9,0,0,0-21.11-9.34c-6.18-1.6-10.41-1.92-11.2-2.69-1.07,0-2.16-.05-3.27-.13a181.41,181.41,0,0,0-30.17-4.71c-9.46-.6-18.86-.13-27.07,3-3,2.86-6.41,5.86-8.47,9-3.45-.21-2.66,2.86-6.09,4.13a20.25,20.25,0,0,0-7.37-.2,9.7,9.7,0,0,0-4.07,1.66c-1.6,1.28-.88,2.55,1.91,2.28-6.07,5-12.22,9.78-16.92,14.8-1.76,2.68-3.35,5.42-4.9,8.18-1.1,2.47-2.84,2.94-5.09,3-1.66,3-2.4,3.93-3.43,4.73a19.9,19.9,0,0,0-4.52,4.34c-1.53.07-2.9,4.52-3.78,9s-1.24,9.05-1.89,9.79l.06-1.18c-1.65,3.53-4.29,6-6.56,8.67s-4.7,5.33-5.82,9c-3.91,10.09-6,21.08-7.16,31.81-.58,5.35-.87,10.74-1.11,15.83s-.35,9.87-.62,14.48c2.75.2-.55-4.09,3.09-4.25-.65,10.79-3.73,21.59-3.75,32a17.36,17.36,0,0,1-2.78,5.14c-.87,3.33,1.41,1.88,1.16,4.3l-2.46.44c2.19,3.4-2.52,5.19-1.34,8.4,1,.12,1.18,1.28,1.15,2.42-2.63.17.33,3.49-2.08,3.42l.2,0a3.57,3.57,0,0,1-.25,2c1,1.24,8.56,12.93,9.64,14.19l-.43.6c.09,1.74,2,2.49,2.52,1.46l-.14,2.17-.18-.25-.14,2.16a2.27,2.27,0,0,1-2.62.22,3.93,3.93,0,0,1,.89,3.75,91.69,91.69,0,0,1,6.61-11.17c.91,1.47-.47,4.16-.18,5.76-1.73,1.92-3.28,5.77-4.54,8.7.12.65,3,1.2,1.69,2.63-2.06.64,0,1.68-1.5,2.83-1-1.46-.49-2.8-.33-4.22-2.4.17-1.76,3.38-2.48,4.46.73.57-.24,3.18.31,4.91-1.47-.59-1.68.13-2,.94.14.17.27.34.41.53l-.41-.51a2.38,2.38,0,0,1-.85,1.16c-.38,1.07.47,1.86,1.32,1.49a1.32,1.32,0,0,0,1.25-.28c.23.35.46.7.68,1.06,1.64,2.53,3.14,5.09,3.24,4.51a.82.82,0,0,1,1-.19.77.77,0,0,0,.66.27c.52.24,1,.42,1.28-.08l-.58-.54c.55-2.42,3.66-1.14,6.87.25,3.42,1.48,7,3.1,7.67-.11-3.24,2.38-3-1.25-3-4.08a5.57,5.57,0,0,0,3.54-3.33c-.11-1.8-1-1.13-1.75-1.52.74-.94,1.43-2.79,3-2.46-1.78-1.5,1.29-2.18.72-3.91-.8-1.52-.81.07-1.67-1,.31-2.21.62-5.32,1-7.1,1.48-.65,4.12-2.76,6.38-1.19-.37,3.44-3.7-1.35-3.26,2.22,3.38-1.48.89,3.17,3.39,3.9,1.56-1.11,1.59-3.45,1.21-5.4l-.45.39c-.4-1.73-1.1-5.14.68-7,1.18.43,2.06-.38,2.36.88l.21-2.38c-.38-.29-.76-.6-1,.09-.92-1.11-.41-2.23.26-3.1.62-.14-.76-3.26-2.19-6.27s-3-5.9-2.61-5.73a3.24,3.24,0,0,1,.64-1.84c1.07,4.19,4.47,13.61,4.09,11.9,1.43-1.55-6.86-19-4.58-20.08-.15-1.24-.48-2.73-1.73-2.38.52-2.14,2.44.52,3.56-1-.2,0-.63.15-.61-.33l1.54-1.52c-2.11-3.18.2-8.09-2.53-11.38,1.42.93,3.86,1.94,5.21,4.09l-.65.41c.4.3.92,2.09,2.18,2a6.42,6.42,0,0,0-.9-6,11.5,11.5,0,0,1,1-1.23,2.54,2.54,0,0,1-.49.05c.75-.74.88-.67,1.39-.43a.77.77,0,0,1,.29.14c3.64-1.46-2.67-8-.86-11.87-.54-1.1-.63-.09-1.37-1.45a77.58,77.58,0,0,0,3.32-10.48c-1.61-1.26-2.24-1.37-3.9.17.17-1,.32-2,.52-3,4.21,2.72,4.14-5.51,8.34-2.48,1-.83,1.19-2.58.56-4.22-1.06-.19-2.77-.5-2.69-2.55a36.06,36.06,0,0,1,2.47-4.4c1.42-.46,1.91.4,3,.36-1.53-3.58,3.24-2.81,3.2-6-.18-2,.08-6-2.33-6.41.48-2.72,2.28-2.45,4.19-1.91l.6-2.11c-.49,3.48-1,7.06-1.73,10.68s-1.28,7.47-1.92,11.2c4.41-8.34,9.07-16.08,11.07-23.67s1.27-14.72-5.13-23.26a11.79,11.79,0,0,0,6.71-.84,21.14,21.14,0,0,0,5.67-3.28c3.27-2.41,5.08-5.09,4.17-5.7-.11-1.54-.15-3.09-.11-4.65a34.6,34.6,0,0,1,.54-4.46,31.22,31.22,0,0,1,15.34-21.41c7.69-4.59,18-6.24,28.91-6.35A111.55,111.55,0,0,1,1841.36,428.88ZM1719.42,631.66c-.34-.29-.06-.81,0-1.2-.15.85-2.08-1.68-3.93-4.07a5.31,5.31,0,0,0,.87-1.35c.35-.74.71-1.37,1.44-1.21-.14-.14-.27-.25-.36-.33l.56-.67a4,4,0,0,1,.8,2c-.18-.2-.36-.38-.52-.54-.92.57-.77,2.54-.79,3.64,1,.11,1.13-.28,1.57-.21a4.55,4.55,0,0,1,.73,1.42c0,.17.06.34.1.5l-.21.27a5,5,0,0,1,.35,1.12A1,1,0,0,1,1719.42,631.66Zm3.73-2.5a2.36,2.36,0,0,1,1.61.26C1724.64,630.08,1724,629.83,1723.15,629.16Z"/><path class="cls-1" d="M1718.3,624.32a1,1,0,0,1,.25-.13,2.12,2.12,0,0,0-.73-.36Z"/><path class="cls-1" d="M1894,515.19l-.25-.36Z"/><path class="cls-1" d="M2000.8,388.56a7.11,7.11,0,0,0,.68-.21l-.47.1Z"/><path class="cls-1" d="M2007.07,386.37a7.22,7.22,0,0,1-1.11.33C2006.81,386.51,2007.31,386.37,2007.07,386.37Z"/><path class="cls-1" d="M2006,386.7l-.64.13h0Z"/><path class="cls-1" d="M2209.62,415.3c.49,1,.8,1.46.81.88C2210.2,416.19,2209.93,415.85,2209.62,415.3Z"/><path class="cls-1" d="M2209.19,414.43c.15.33.29.62.43.87-.13-.26-.27-.56-.42-.89Z"/><path class="cls-1" d="M2204.61,412.89a1.94,1.94,0,0,0,.6.52l-.34-.55A.77.77,0,0,1,2204.61,412.89Z"/><path class="cls-1" d="M2209.2,414.41a2.34,2.34,0,0,1,1.09-.78,1,1,0,0,0-.92-1.7,1.43,1.43,0,0,0-1.26-.09l-.43-1.11c-1-2.66-2-5.12-2.2-4.66a.93.93,0,0,1-1-.07.92.92,0,0,0-.62-.4c-.46-.3-.89-.56-1.24-.23l.45.59c-1,1.84-3.74,0-6.6-1.9-3.05-2-6.25-4-7.42-1.9,3.49-.85,2.64,1.65,2.24,3.75a5.45,5.45,0,0,0-4,1.26c-.27,1.27.72,1.1,1.33,1.61-.9.42-1.93,1.46-3.31.69,1.33,1.64-1.69,1-1.59,2.33.36,1.3.77.26,1.29,1.3a33.91,33.91,0,0,1-2.84,4.24c-1.55-.18-4.53,0-6.12-2,1.3-1.94,3,2.41,3.58,0-3.47-.48.07-2.34-2.08-3.8-1.7.07-2.31,1.46-2.51,2.79l.51,0c-.1,1.2-.48,3.58-2.62,3.87-.93-.79-2-.72-1.85-1.58l-.9,1.27c.24.34.49.7.94.42.47,1.07-.32,1.49-1.2,1.66-1.1-.46.64,9.8,0,9.24-.25.48-.77.57-1.2.7.59-2.91.93-10,.59-8.8-.8.11-1,3.6-1.26,7.09s-.83,6.88-2,6.55c-.36.77-.67,1.78.51,2.27-1.27.9-1.84-1.63-3.38-1.38.16.12.59.26.38.51h-1.87c.52,2.92-3.39,4.26-2.46,7.61-.78-1.3-2.39-3.25-2.65-5.16l.7.14c-.21-.39.07-1.64-1-2.29-1.46.72-1.89,1.84-1.64,3.76a10,10,0,0,1-1.31.1c.14.09.27.14.43.25-.93,0-1-.14-1.32-.55a1,1,0,0,1-.19-.25c-3.57-1.3-1,5.87-4.09,6.93,0,.91.49.41.55,1.58a36.75,36.75,0,0,0-6.92,4c.81,1.64,1.3,2.06,3.27,2.13l-1.62,1.42c-2.41-4-5.55.86-7.84-3.28a2.12,2.12,0,0,0-2.12,2.2c.81.71,2.11,1.85,1.26,3.05a33.69,33.69,0,0,1-3.74,1.36c-1.37-.47-1.46-1.3-2.41-1.88-.06,3.18-3.8.14-5,2.33-.57,1.52-2.22,4.16-.27,5.62-1.3,1.67-2.76.66-4.27-.65l-1.21,1.27c3-4.74,7.14-9,11.19-13.05-13.83,5.15-28.65,13.72-19.48,31.66-7.12-3.73-15.78,1.43-17.1,4-1.78-2-3.22-4.32-5.31-6a51.53,51.53,0,0,0-13.39-7.1c-1.27-.2,0-2.31.42-3.82-3.5-2-6-6.25-10.07-8.42a.51.51,0,0,1,.07.22c-1.88-1.39-.87-4.6-2.73-5.94-.59.54-.86.32-1.28.48,2.52-2.79-14.61-4.57-13.54-6.6a3,3,0,0,1-.8-.24c-1.91-4.63.25-13.14-3-15.71a51,51,0,0,0-5.69,1.6c.72-1.61-1.69.38-2-.56,4.12-6.65.92-5.5-.29-2.88-2-.67-2.68-2.46-3.94-3.47-.91-.19-1.83-.35-2.81-.47s-.31-1.07.8-2.5c-1.88-.49-.18-1.38-.76-3.16,1.68-2.06-6-.38-5.7-1.28l.47,0c-1-1.77,1.92-6.15.8-7.74-2.16-5.29-7.6-8.36-9.66-12.17-2.12,1.76,1.08.33-1.64,2.75-1.37-2.31-.32-6.4-1.27-8.4a12,12,0,0,1,1.79-2.63c.43-1.13-1.29.47-1.3-.13l2-1.51c-2,.64,1.72-2.35.54-2.23-.84.54-1.06.44-1.1.23,2.19-1.46-.49-.4,1.55-1.69l-.17.11c0-.12-.22-.09.09-.45-.85.4-8.08,2.39-9.2,2.64l.33-.3c-.24-.24-2,.56-2.35,1l0-.43.18,0,0-.41a10.88,10.88,0,0,1,2.31-1.22c-.91.23-1.48.23-1.14-.15l-4.86,4.91c-1,.16,0-1-.38-1.15a36.47,36.47,0,0,0,3.25-3.43c-.19,0-2.9,1.09-1.84.31,1.81-.93-.2-.25,1.08-1,1.07-.2.74.2.75.47,2.16-1,1.23-1.18,1.81-1.6-.73.21-.16-.47-.88-.48,1.44-.46,1.54-.62,1.77-.83l-.28.05.28-.06a2.18,2.18,0,0,1,.65-.41c.22-.24-.69,0-1.43.3a6.55,6.55,0,0,0-1.13.46l-.79.12c-1.9.27-3.72.38-3.72.49a3.16,3.16,0,0,1-.92.35,3.83,3.83,0,0,0-.63.16,4.18,4.18,0,0,0-1.24.43l.64-.1c-.12.53-3.24,1.4-6.49,2.2-3.46.86-7.09,1.63-7.17,2.59,2.6-1.6,3-.72,3.54-.18a6.83,6.83,0,0,0-2.75,2c.39.36,1.12-.14,1.86-.33a5.47,5.47,0,0,1-2.34,1.7c1.87-.37-.89,1-.1,1.21,1,0,.74-.35,1.68-.45a8.65,8.65,0,0,1,.06,2.09c-1.24.8-3.29,2.52-5.54,3.14-.18-1.05,3.51-1.31,2.6-2-2.84,1.86-1.21-.44-3.6.45-1.23.94-1,1.63-.3,2l.34-.3c.64.28,1.72.85.39,2.2-1.1.44-1.77,1.08-2.21.86l.16.77c.37-.1.76-.2.89-.51,1-.14.69.4.21,1-.51.33,1.1.58,2.76.66s3.32.06,3,.22c.14.19-.13.54-.3.83-.52-.2-1.38-.42-2.26-.65-1.58-.37-3.18-.75-2.84-.54-.49.55,1.65,1.07,3.61,1.52s3.82.83,2.94,1.62c.29.25.76.47,1.75-.33-.15.86-2.09,1.23-2.8,2.27.17-.1.5-.39.54-.25l-1.06,1.29c2.16-.33,1,2.34,3.67,1.6a20.8,20.8,0,0,1-4.8,2l.46-.49a4.07,4.07,0,0,0-2.07.71c-.28,1,.25,1.37,1.66,1.17-.2.31-.38.63-.59.92l.38-.3a2.39,2.39,0,0,1-1,.95,2.1,2.1,0,0,1-.26.13c-2.67,2.61,3.45.63,2.69,2.72.63-.06.51-.37,1.33-.48a15.66,15.66,0,0,0-.54,4.76,5.91,5.91,0,0,0,2.94-2.57l.22,1.05c-3.8,2.11-1.93,4-5.76,6-.56.85-.32,1.43.55,1.37.84-.66,2.19-1.73,2.62-1.23a22.7,22.7,0,0,1-.73,2.61,19.57,19.57,0,0,1-2.33,2c2.12-.3-1.58,2.78-.64,3.44.77.25,1.78,1.12,3.62-.49.53.75-.8,1.95-2.34,3.21l.29.72c-1.72-1.63-2.79-4.1-3.79-6.76-2.37,9.88-3.74,19.26,12.13,10.52-6.68,6.62-6.49,13.35-4.7,11.88a26.36,26.36,0,0,1,5.35-.46c10,.25,12.67,7.95,15.16,16.14,1.53,4.4,7.82,14.46,8.75,19.55.17.7.36,1.39.59,2.05-.09-1.36-.09-1.36-.17-2.72a72.59,72.59,0,0,1,9.87,1.17,19.19,19.19,0,0,0,2.37-4.11l.14,1.49c3.63-1.79,5.19.2,7.21,0-1.69,1.17-1.37,2.14-1,3l.78-1.15c1.47,2.9,5.14,4.49,6.83,6.74.26.29-.11,1-.52,1.62l3,.94c-2.17,1.68-.29,3.27-2.43,3.46,3.75-.67,3.65,2.17,7.42,1.36a43.57,43.57,0,0,0,19.44,11l.64-.81c3,.63,8.47-1.36,9.16,2.08a35.53,35.53,0,0,1,4.34-.48c-5.22,8.25-12.07,15.85-19.06,23.7-3.49,3.93-9.06,11.8-14.86,19.59-5.64,7.88-11.47,15.73-15.17,19.77-1,1.19-2,2.39-3,3.63l3.94-3.73c-.88,6.91-1.52,13.21-2.77,19,1.65-.26,2.9.2,5.65-1l-2.15,2.11c2.23,4.15-.7,9.42-.55,12.69-1.54-1.48-2.93.32-4.11,1.93l1.56-.08c-4.26,6.23-6.56,14.79-9.8,20.64a2.63,2.63,0,0,1-2.24,1.18l-1.38,6.46c-2.24-1.64-4.47,3.75-4.68.24.83,5.74-3.09,9.26-2,14.83-6.51,15-11.85,31.66-14.13,48.94l1.09,0c-.65,6.11,2.33,12.93-2,18.84,1.46,6.08.51,13.45,5.12,17.42-1.38,5.7.45,8.9-.23,14.71,3.16-.35,1.19,6.36,4.25,4.53,5-2.08,2-3.47,6.11-5.28l-.92-.26c4.65-6.13,8.89-12.4,12.93-18.75s7.71-12.85,11.25-19.44a55.33,55.33,0,0,1,5-14.61c2.24-4.74,4.6-9.48,6.48-14.31,1.89-5.26,3.64-10.85,5.25-16.3s3.05-10.78,4.08-15.62c.26-2.43,3.15-2.85,5.19-4a125.91,125.91,0,0,1,5.79-13.4,121.46,121.46,0,0,0,6.18-14.16,1.58,1.58,0,0,1-.31.38c2-4.93,6.47-7,8.49-11.8-.72-.36-.39-1.09-.57-1.63,1.89.51,3.68-7.14,5.62-14.9s3.7-15.83,5.12-16.07a12.28,12.28,0,0,1,.46-1.65c3.49-4.32,8.19-8,12.59-11.63s8.51-7.14,10.63-11.32c-.47-2.66-.59-5.41-1.37-7.9,2.24-.57-.24-2.47,1.18-3.95,9.07-.34,7.95-4.5,4.32-3.7,1.34-4.09,4.12-7.29,5.92-10.53.47-1.74.91-3.49,1.31-5.3.27-1.58,1.65-1.67,3.55-1.33,1.14-3.75,2.1-1.8,4.87-4.7,2.72.65,2-10.54,3.29-11l0,.76c2.94-3.55,8.78-3.27,11.5-6.79A112.77,112.77,0,0,0,2162,490.88c3.56-5.31,7.05-10.68,10.84-15.35-2.19-1.67-1,2.51-4.07.54,4.4-5.46,11.31-9.47,15.75-15.45a13.44,13.44,0,0,1,4.48-1.41c2.15-1.48-.35-1.91.89-3.2l2.24,1.12c-.36-3.29,4.35-1.82,4.77-4.47-.78-.63-.43-1.49.08-2.21,2.29,1.3,1.24-2.47,3.25-1.14l-.16-.13c.31-.44.36-.86,1.09-1.2-.1-.67-.61-4-1.11-7.37s-1.16-6.68-1.41-7.38l.61-.23c.6-1.3-.89-2.74-1.68-2.2l.91-1.52.07.26.91-1.52a2.64,2.64,0,0,1,2.44,1c-.39-1.31-.34-2.53.52-3.24a42.93,42.93,0,0,1-9.93,5.17c-.26-1.43,2-2.65,2.24-3.94,2.22-.58,4.95-2.75,7-4.55.09-.57-2.44-2.1-.75-2.7,2.1.27.51-1.29,2.24-1.68.56,1.55-.39,2.4-1,3.46,2.27.78,2.71-2,3.68-2.67-.52-.72,1.11-2.61,1.05-4.23,1.24.94,1.64.41,2.18-.19-.1-.2-.19-.42-.29-.65C2209,414,2209.1,414.21,2209.2,414.41Zm-210.31-26.54c.37-.07.18.09.17.17a30.55,30.55,0,0,1,4.28-.82c-.71.41-.66.72-1.86,1.13l.43-.09-.45.29a2.26,2.26,0,0,1-1,0l.55-.12c.81-.41.39-.59.23-.73-.91.31-1,.42-1.43.56a4.25,4.25,0,0,1-.9.05l-.17,0,.15-.11a2.08,2.08,0,0,1-.49,0C1998.43,388.09,1998.57,388,1998.89,387.87Zm-3.11,1.59a11.61,11.61,0,0,1-1.55.5C1994.24,389.81,1994.88,389.64,1995.78,389.46Zm204,17.4c.24-.49.81-.13,1.5.63A2.78,2.78,0,0,1,2199.73,406.86Zm5.48,6.55.25.38-.71.37a3.64,3.64,0,0,1-.25-1.91l.37.61c1-.18,1.31-1.94,1.55-2.88-.9-.34-1.14-.06-1.55-.24a3.86,3.86,0,0,1-.41-1.39v-.44l.26-.17a3.66,3.66,0,0,1-.11-1,.88.88,0,0,1,.73-.35c.27.32-.11.7-.27,1,.33-.67,1.69,1.89,2.94,4.52C2207,412.4,2206.3,414,2205.21,413.41Z"/><path class="cls-1" d="M934.59,857.6l-.47.51a1.25,1.25,0,0,1,.16.24A1.86,1.86,0,0,0,934.59,857.6Z"/><path class="cls-1" d="M1105.22,1013.86c.13-.11.26-.21.38-.33C1105.45,1013.65,1105.33,1013.76,1105.22,1013.86Z"/><path class="cls-1" d="M934.77,852.78l-.82.74h0A10.1,10.1,0,0,0,934.77,852.78Z"/><path class="cls-1" d="M1199.39,948c-.35-.83-.69-1.7-1-2.59-1.07-8.91-1.74-18.42-3.83-27.8s-5.65-18.48-11.45-25.24a53.75,53.75,0,0,0-11.37-4.92c-1-3.29-3.7-1.41-6.07-4.16a18.77,18.77,0,0,0-2.56-6.88,8.78,8.78,0,0,0-3-3.24c-1.85-.95-2.73.21-1.37,2.63-3.66-1.63-6.94-3.75-10.47-5.31a58.38,58.38,0,0,0-10.13-4.22,66.1,66.1,0,0,0-9.41-.86c-2.64,0-3.78-1.31-4.74-3.3-3.33-.05-4.39-.38-5.5-1A16.55,16.55,0,0,0,1113,859c-.66-1.38-4.93-.72-8.93.4s-7.85,2.54-8.7,2.13l1-.37c-6.92-.55-11.25-5.57-17.62-5.79-17.74-1.87-37.1.13-53.53-.72-.15,2.75,3.62-.62,3.83,3-9.69-.44-19.47-3.83-29.25-4.26a16.35,16.35,0,0,1-4.73-3c-3.13-1-1.85,1.32-4.13,1l-.32-2.49c-3.33,2.05-4.89-2.74-8-1.7-.16,1-1.31,1.14-2.43,1.06-.06-2.63-3.44.2-3.29-2.21l0,.2a3.58,3.58,0,0,1-2-.32c-1.27.93-13.25,8.19-14.55,9.31l-.61-.43c-1.79.08-2.55,2-1.5,2.51L956,857.2l.26-.18-2.21-.14a2.19,2.19,0,0,1-.24-2.62,4.22,4.22,0,0,1-3.9,1,71.11,71.11,0,0,1,11.43,6.55c-1.49.91-4.19-.48-5.8-.19-1.94-1.73-5.91-3.2-9-4.39-.68.15-1.13,3.09-2.68,1.8-.76-2-1.74.08-3-1.38,1.47-1.09,2.91-.61,4.4-.51-.27-2.39-3.64-1.61-4.82-2.28-.54.75-3.42,0-5.23.65.51-1.51-.27-1.67-1.18-2l-.57.48.55-.48a2.82,2.82,0,0,1-1.34-.75c-1.22-.27-2,.66-1.5,1.47a1.25,1.25,0,0,0,.44,1.21c-2.89,2.16-6.22,4.43-5.51,4.48a.81.81,0,0,1,.33,1,.76.76,0,0,0-.21.69c-.17.55-.29,1,.25,1.27l.5-.64c5.36.61-4.67,13.74,1.52,14.47-2.69-3,.9-3.05,3.71-3.41a5.76,5.76,0,0,0,3.55,3.26c1.75-.23,1-1.09,1.36-1.85,1,.67,2.83,1.23,2.59,2.8,1.36-1.88,2.19,1.18,3.82.53,1.44-.86-.1-.8.92-1.71,2.17.19,5.2.45,6.93.8.67,1.47,2.71,4.07,1.24,6.36-3.29-.31,1.23-3.72-2.18-3.22,1.48,3.36-3,.93-3.63,3.47,1.09,1.52,3.3,1.53,5.14,1.1l-.37-.44c1.62-.45,4.87-1.16,6.64.63-.41,1.18.36,2.07-.84,2.36l2.24.21c.29-.37.58-.75-.07-1,1-.92,2.11-.41,2.92.28.25,1.25,11.89-5.28,11.53-4.5a2.9,2.9,0,0,1,1.73.69c-4,.94-13.08,4.1-11.42,3.78,1.3,1.29,16.35-5.44,18.93-4.24a3.94,3.94,0,0,0-.57.77c.26,1.09,1.11.61,1.87.8-.66.63-1.18,1.81-2.75,1.71,1.89.8-1.15,1.4-.48,2.41.89.88.81-.09,1.73.53a32.58,32.58,0,0,1-.69,4.37c-1.46.46-4,1.81-6.34,1,.26-2.07,3.74.67,3.19-1.45-3.33,1-1-1.87-3.54-2.19-1.49.73-1.46,2.11-1,3.26l.44-.25c.47,1,1.23,3-.53,4.18-1.19-.23-2.06.28-2.37-.46l-.18,1.41c.38.17.77.34,1-.07.94.63.45,1.31-.24,1.83-1.24.19,5.44,7.32,4.65,7.12,0,.48-.37.79-.67,1.1-1-2.5-4.26-8.1-3.92-7.07-1.35.9,6.53,11.29,4.18,12,.11.75.4,1.65,1.66,1.44-.58,1.28-2.43-.32-3.59.61.2,0,.63-.09.59.2l-1.58.9c2,1.92-.46,4.86,2.18,6.86-1.38-.57-3.8-1.19-5.08-2.49l.66-.24c-.39-.18-.86-1.26-2.12-1.2-.81,1.27-.55,2.34.72,3.64a11.43,11.43,0,0,1-1,.74c.17,0,.31,0,.5,0-.78.45-.91.4-1.41.26a1.2,1.2,0,0,1-.29-.09c-3.68.87,2.45,4.88.57,7.22.54.66.64,0,1.36.87a30.65,30.65,0,0,0-3.33,6.48,3.28,3.28,0,0,0,3.9-.17l-.49,1.86c-4.28-1.61-4,3.52-8.27,1.75a1.76,1.76,0,0,0-.43,2.69c1.07.08,2.8.22,2.81,1.52a31.57,31.57,0,0,1-2.22,2.92c-1.39.37-2-.17-3.06-.08,1.82,2.28-3,2.06-2.7,4.24.43,1.36.64,4.05,3.08,4.08-.09,1.84-1.87,1.87-3.86,1.71l-.25,1.5a65.39,65.39,0,0,1,1.45-15c-8.14,11.06-15.27,23.94,2.44,32.2-9.39,1-13.65,11.6-11.34,11.8a40.61,40.61,0,0,1,4.32,6.64c7.36,14.17,4.19,29.67.47,45.61-1.84,8.85-4.13,32.89-7,41.9-.37,1.31-.71,2.62-1,3.94l1.76-4.37a163,163,0,0,1,6.3,15.51c1.36-.83,2.67-1,4.56-3l-.94,2.47c3.86,2.33,3.59,7.55,5.17,10-2-.57-2.48,1.36-2.82,3.06l1.36-.65c-1,6.45.53,14,.1,19.78,0,.8-.8,1.39-1.52,1.73L960,1138c-2.72-.5-2.53,4.53-4.17,1.83,3.11,4.24,1,8.39,4.24,12.45a169.86,169.86,0,0,0,5.47,44.08l1-.31c1.59,5.19,6.78,10,4.73,16.11,3.46,4.62,5.06,11,10.67,13.1.53,5.19,3.29,7.38,4.52,12.52,2.89-1.16,3.17,5.08,5.48,2.71,4.1-3.16.76-3.52,4.08-6.21l-1,0a185.73,185.73,0,0,0,9.79-39.83c-2.06-9.12.32-18.83-.12-28.25a184.19,184.19,0,0,0-4.3-29.84c-.75-2.09,1.65-3.51,3-5.24-1-8,.11-18.12-1.23-27.14a1.48,1.48,0,0,1-.11.44c-.38-4.78,2.58-8.3,2.17-13-.8,0-.84-.71-1.25-1.07.77-.15.92-1.39.68-3.27,10.9-.55,21.79-1.66,32.65-3.26,14-5.34,29.94-7.06,44.62-11.64a323.92,323.92,0,0,0,45-18.48c3-1.8,6-.3,9.13.07,6-2.73,12.68-4.88,20.68-8.11,7.84-3.23,16.55-7.34,24.29-14a7.63,7.63,0,0,1-.85.49c4.17-3.29,8.3-6,12.25-9.51a39.84,39.84,0,0,0,10.31-13.47c-.75-.3.06-2.07,0-3.08,1-.07,3.1-4.69,4-11a68.72,68.72,0,0,0-.5-20.32C1203.39,961.79,1198.69,949.62,1199.39,948ZM929.42,865c-.7,0-.52-.71.09-1.63A2.36,2.36,0,0,1,929.42,865Zm4.18-6.36.52-.57c-.67-.89-2.78-.53-4-.43,0,1,.42,1.09.39,1.54a5,5,0,0,1-1.43.87l-.51.15-.31-.18a5.67,5.67,0,0,1-1.14.46,1.08,1.08,0,0,1-.72-.56c.27-.37.86-.14,1.28-.1-.92-.07,1.51-2.24,3.92-4.33,1,.79,3.14.84,3,2.07a4.32,4.32,0,0,0,.33-.39l.75.52A4.58,4.58,0,0,1,933.6,858.68Zm64.28,36.71a11.46,11.46,0,0,0,2.54-2.95c.58.79,1.62.76,2.86.42a43.3,43.3,0,0,1-5.5,6.19C996.85,898.13,998.2,896.4,997.88,895.39ZM1151,1002.16c-.44-2.1-2.63-1.33-4.73-.69l1.36.84c-3.89,1.43-8.26,3.41-13,5.36s-9.72,4-14,5.27a3.62,3.62,0,0,1-3.1-.53l-7.79,4.15c-.18-2.68-7-.4-4.53-2.7-5.18,4.69-11.86,4.76-16.77,9.59-21.22,6.48-43.59,14.1-65.35,23.14l.75.88c-7.57,3.35-13.65,10-23.75,9.94-.8.61-1.66,1.2-2.55,1.77,1.93-9.62,9-19.52,8.36-27.8a51.65,51.65,0,0,0-5.3-5.46c1.62-1.49-1.5-1.78-1.06-3.58,7.52-4.56,4.37-7.25,1.71-4.88-1-3.76-.35-7.53-.63-10.87-.55-1.55-1.13-3.09-1.79-4.64-.63-1.33.48-2.07,2.26-2.75-1.08-3.39.78-2.4,1.52-6,2.64-.88-4.24-8.9-3.45-9.91l.39.58c.42-4.12,5.48-6.9,5.67-10.93,1.8-11.21-.32-23.41.38-33.79-2.75-.05.66,2.28-3,2.47.36-6.12,3.65-12.35,4-18.54a11.59,11.59,0,0,1,2.93-3c1-2-1.35-1.13-1-2.58l2.48-.26c-2.09-2.06,2.68-3.15,1.6-5.11-1-.08-1.15-.81-1.09-1.52,2.63-.1-.24-2.17,2.17-2.13h-.2c0-.43-.15-.73.29-1.26-.95-.79-8.35-8.18-9.5-9l.43-.4c-.12-1.13-2.09-1.55-2.54-.88l.1-1.4.19.16.11-1.4a1.33,1.33,0,1,0,1.48-1.68c2.47-.81,5.53-2.33,7.63-1.24,1.08-.53.1-.63,1.44-1.34a62,62,0,0,0,10.25,3.43c1.25-1.61,1.35-2.24-.17-3.91l3,.52c-2.68,4.26,5.54,4,2.58,8.29.87,1,2.64,1.17,4.3.47.16-1.07.42-2.79,2.5-2.79,2.9,1.41,2.21.9,4.62,2.26.57,1.38-.31,1.94-.2,3,3.69-1.8,3.24,3,6.73,2.74,2.19-.42,6.51-.6,6.61-3,3,.11,3,1.89,2.67,3.88l2.39.26a167.21,167.21,0,0,1-23.94-1.59c17.5,8.24,38.17,15.52,51.62-2.18.73,4.7,5.32,8.11,9.3,10.14s7.45,2.73,7.67,1.58a43.94,43.94,0,0,1,8.67-3.51,28.85,28.85,0,0,1,12.57-.86,23.39,23.39,0,0,1,10.35,4.68l2.27,1.93c.71.72,1.37,1.52,2.06,2.27a16.51,16.51,0,0,1,1.9,2.49,28.09,28.09,0,0,1,1.75,2.68,56,56,0,0,1,5.15,12.45,100.17,100.17,0,0,1,4.71,24.31,79.89,79.89,0,0,1-.5,14.2c-.57,4.47-1.56,6.91-2.46,7.93a3.11,3.11,0,0,1-1.23,1.1,2.54,2.54,0,0,0,1-.33,5.15,5.15,0,0,0,1-.87,23.66,23.66,0,0,0,2.55,3.87,4.84,4.84,0,0,1,.36,4.22c1.35.58,2.31,1.48,4.64,1.62-.52.26-1.25.47-1.83.7C1157.75,996,1152.94,999.33,1151,1002.16Z"/><path class="cls-1" d="M935.37,851.71c.11.21-.14.59-.6,1.07C935.63,852,936,851.5,935.37,851.71Z"/><path class="cls-1" d="M1456.36,1108.71a567.5,567.5,0,0,0,1-83.14l-1.08.58c-.86-9.82-5.4-18.83-2.48-30.37-2.81-8.71-3.57-20.79-8.92-24.67.17-9.73-2.31-13.86-2.86-23.46-3,2.16-2.5-9.53-5.13-5.08-4.54,5.89-1.23,6.56-4.92,11.58l1-.06a649.55,649.55,0,0,0-15.26,74.18c.75,17-3,35.1-4,52.65-.41,9.46-.66,19.33-.7,28.88s.12,18.89.47,26.73c.39,3.77-2.27,6.11-4,8.93a102.27,102.27,0,0,1-3.28,21.07c-.9,3.43-2,6.81-3.08,9.92s-2.3,6.07-3.53,8.91a3.65,3.65,0,0,1,.38-.48,19.49,19.49,0,0,1-5.69,6.66,55.13,55.13,0,0,0-6.09,5c.55.58,0,1.19-.08,1.77-.81-.6-2.32.77-4.46,2.65a37.3,37.3,0,0,1-8.87,6.23c-8,4.1-20.7,5.45-21.93,4.27a21.62,21.62,0,0,1-2.61.24,77.35,77.35,0,0,1-23.27-8.64c-6.68-3.69-11.57-7.52-16-9.78-2.76.41-5.68.1-8.57.4-.38-2.59-2.82-.35-4.28-2.48.43-4.84,0-7.32-1-8.16s-2.17-.11-2.19,2c-4.06-3.51-6.41-8.76-8.9-13.24l-2.32-2.91c-.77-1-1.54-2-2.31-3.08-1.42-1.74-.76-3.34.51-5-1.49-2.36-1.54-3.45-1.48-4.52a17,17,0,0,0-.11-5.23c1-1-1-4.3-3.17-7.71s-4.5-7-4.28-8l.59.91c-1.11-7.14,3.06-13,2-20.16-1.55-20.11-6.21-41.65-6.68-60.35-2.76,0,.91,4.05-2.68,4.57-.39-11.07,2.28-22.34,2.45-33.4a17.8,17.8,0,0,1,2.84-5.41c1-3.54-1.34-2.05-1-4.64l2.47-.38c-2.11-3.74,2.68-5.52,1.66-9-1-.19-1.13-1.48-1-2.73,2.64,0-.18-3.87,2.23-3.66l-.2,0a4.35,4.35,0,0,1,.36-2.21c-.44-.72-2.41-4.46-4.4-8.26s-3.87-7.64-4.41-8.4l.46-.67c0-2-1.93-3-2.45-1.83l.25-2.51.17.3.29-2.49a2,2,0,0,1,2.63-.14,5.24,5.24,0,0,1-.7-4.46,103.17,103.17,0,0,1-7.2,12.67c-.84-1.74.65-4.77.47-6.63,1.87-2.13,3.6-6.57,5-10-.11-.78-3-1.5-1.57-3.17,2.09-.71.07-2,1.64-3.33,1,1.75.35,3.34.12,5,2.41-.13,1.93-4,2.7-5.28-.7-.68.29-3.88-.18-6,1.45.71,1.7-.16,2.07-1.16-.15-.23-.3-.49-.46-.76l.47.74a3.22,3.22,0,0,1,.88-1.44c.4-1.35-.43-2.31-1.29-1.83a1.18,1.18,0,0,0-1.25.38c-1.85-3.47-3.75-7.47-3.87-6.69a.76.76,0,0,1-1,.27.69.69,0,0,0-.67-.3c-.52-.26-1-.46-1.28.14l.58.64c-1.19,6.11-13.16-6.82-14.57.28,3.26-2.83,2.94,1.35,3,4.65-1,.22-2.66,1.55-3.65,3.84.06,2.07,1,1.3,1.71,1.75-.75,1.08-1.47,3.2-3,2.8,1.74,1.74-1.38,2.46-.88,4.43.73,1.75.81-.06,1.62,1.2-.41,2.52-.83,6.06-1.31,8.06-1.51.69-4.25,3-6.43,1.09.53-3.87,3.63,1.67,3.36-2.38-3.45,1.54-.72-3.62-3.22-4.51-1.58,1.19-1.74,3.81-1.44,6l.46-.41c.35,1.95.79,5.82-1,7.83-1.16-.54-2.08.34-2.32-1.1l-.32,2.66c.36.35.73.72,1,0a2.8,2.8,0,0,1-.43,3.47c-1.32.28,4.86,14.29,4.11,13.82a3.79,3.79,0,0,1-.73,2c-.85-4.79-3.74-15.62-3.43-13.67-.75.8.69,6.3,2,11.69s2.71,10.68,1.5,11.27c.09,1.42.35,3.12,1.62,2.78-.62,2.4-2.42-.7-3.61,1,.2,0,.63-.15.59.4l-1.57,1.65c2,3.7-.48,9.22,2.28,13.05-1.4-1.09-3.88-2.31-5.15-4.81l.66-.45c-.4-.35-.87-2.42-2.13-2.34a8.1,8.1,0,0,0,.79,7,15.07,15.07,0,0,1-1,1.41,3.8,3.8,0,0,1,.5-.06c-.76.86-.89.77-1.4.49a1.28,1.28,0,0,1-.29-.17c-3.64,1.65,2.65,9.37,1,13.83.6,1.26.64.09,1.43,1.66a71.16,71.16,0,0,0-2.66,12.49c1.7,1.39,2.34,1.45,3.88-.48l-.27,3.57c-4.51-2.9-3.51,7-8,3.74-.87,1.13-.88,3.29,0,5.23,1.08.11,2.82.27,3,2.77-1.1,3.63-.65,2.75-1.7,5.78-1.31.83-2-.18-3.07.06,2.26,4.29-2.58,4.24-1.86,8.46.7,2.62,1.56,7.84,4,7.65.34,3.58-1.43,3.82-3.44,3.72l.11,3a183.68,183.68,0,0,1-1.67-29.29,146,146,0,0,0-3.92,17.12,74.54,74.54,0,0,0-.8,17.25c.87,11.17,5.29,21.26,15.47,27.73-4.47,1.71-6.81,8-7.47,14.12s.26,11.89,1.45,11.82c2.86,4.15,5.54,8.39,8.2,12.73,8.33,13.62,16,28.6,27.69,43.34a117.46,117.46,0,0,0,21,20.54,119,119,0,0,0,26,14.51,136.08,136.08,0,0,0,20.06,6c4,.87,8.15,1.66,12.36,2.36s8.47,1.32,13.16,1.82a125.59,125.59,0,0,0,30.19-.11,99.93,99.93,0,0,0,26.54-7.55c1.84-.85,3.65-1.75,5.46-2.69s3.48-2,5.18-3.06a89.13,89.13,0,0,1-12.23,5.72,86.75,86.75,0,0,0,16.76-16.34,116.92,116.92,0,0,0,10.83-16.69c-2.43.91-3.58.54-8.25,3.2,1.55-1.36,3.07-2.77,4.5-4.23.15-3.38,1.83-7.56,3.5-11.69s3.23-8.24,3.62-11.1c1.36,2,3.61-2,5.21-5.49l-1.79.94a90.13,90.13,0,0,0,6.25-21.18c1.3-7.13,2-13.92,2.85-19.65a5.17,5.17,0,0,1,1.9-3.34c-.07-3.73-.22-7.38-.39-11,2.54,1,3.21-7.69,4.32-3.9C1456.37,1123.83,1458.9,1116.31,1456.36,1108.71ZM1265.14,943.45c.35.35,0,1,0,1.47.16-1,2.06,1.94,3.89,4.86-.91,1.09-1.18,3.49-2.39,3.15.14.17.25.31.35.41l-.59.8a5.46,5.46,0,0,1-.72-2.43l.5.65c1-.69.84-3.11.86-4.46-1-.1-1.13.38-1.57.3a5.5,5.5,0,0,1-.71-1.71c0-.2-.07-.4-.1-.6l.21-.34a6.72,6.72,0,0,1-.33-1.34A1.21,1.21,0,0,1,1265.14,943.45Zm-3.76,3.15a2,2,0,0,1-1.61-.27C1259.89,945.55,1260.53,945.82,1261.38,946.6Z"/><path class="cls-1" d="M1265.9,952.51a1.82,1.82,0,0,0,.71.42c-.14-.16-.29-.36-.46-.57A1,1,0,0,1,1265.9,952.51Z"/><path class="cls-1" d="M1271.42,953.6c-.2-.3-.43-.64-.67-1v0A11.37,11.37,0,0,0,1271.42,953.6Z"/><path class="cls-1" d="M1458.52,1131.78c0,.19.1.39.16.58C1458.62,1132.14,1458.57,1132,1458.52,1131.78Z"/><path class="cls-1" d="M1272.39,954.34c-.21.1-.55-.19-1-.74C1272.12,954.63,1272.53,955.08,1272.39,954.34Z"/><path class="cls-1" d="M1504.27,1229.68a1.73,1.73,0,0,0-.77-.39l.52.58A1.18,1.18,0,0,1,1504.27,1229.68Z"/><path class="cls-1" d="M1748.35,1255.17a650.26,650.26,0,0,0-4.48-82.32c-5.31-17.8-6.7-37.81-10.74-56.56-4.58-20.13-10.43-41.73-16.06-58.64-1.59-4,.16-7.41.77-11.2-4.33-15.65-7.43-36.67-14.08-55a6,6,0,0,1,.16.94c-3.16-9.75-2.67-18.08-6.66-27.69-.73.32-1.34-1.17-2-1.75.74-.74-.7-4.54-3.44-9.79-1.43-2.62-3.08-5.61-5.09-8.73s-4.27-6.66-6.9-10.15a100,100,0,0,0-8.77-10.24,68.58,68.58,0,0,0-10.9-9.32c-7-4.74-12.74-6.43-13.68-7.45-1.45-.3-2.92-.69-4.44-1l-3.7-1.1a59.2,59.2,0,0,0-21.79-1.08c-1.87.23-3.73.54-5.61.9l-4.57.87c-2.89.59-5.56,1.2-8,1.79-9.84,2.26-19.84,5.5-28.14,11-2.91,3.91-6.25,8.12-8,12.07-3.93,1.12-2.53,3.93-6.15,6.68-6.82,1.28-11.09,4.48-12.52,6.69s-.43,3.19,2.58,1.51c-2.79,4.22-5.56,8.62-7.87,12.89a79.17,79.17,0,0,0-5.54,12.37,93.42,93.42,0,0,0-1.7,11.12,5.92,5.92,0,0,1-3.75,5.49c-.36,3.84-.8,5-1.5,6.27a22.82,22.82,0,0,0-2.73,6.06c-2.91,1.27.63,19-.43,20.86l-.18-1.26c-1.94,8.3-7.87,13.07-9.39,21.32-5.52,22.73-6.48,48.27-9.16,69.66,2.72.45-.22-4.79,3.43-4.72-1.54,12.58-5.94,25.12-7,38a24.41,24.41,0,0,1-3.31,6.07c-1.18,4.08,1.22,2.49.75,5.49l-2.5.31c1.88,4.48-3,6.35-2.1,10.55,1,.25,1.1,1.77,1,3.25-2.64,0,.08,4.56-2.32,4.29l.19,0a6,6,0,0,1-.38,2.61c.81,1.75,8,17.64,9.08,19.31l-.43.8c.1,2.36,2.06,3.36,2.52,2l-.12,2.9-.19-.33-.12,2.88a1.82,1.82,0,0,1-2.62.34,6.8,6.8,0,0,1,1,5.11,98.79,98.79,0,0,1,6.48-15c.9,1.94-.46,5.45-.16,7.56-1.7,2.53-3.2,7.74-4.28,11.81.17.89,3.13,1.44,1.88,3.48-2,1,.12,2.27-1.31,4-1.12-1.9-.68-3.8-.62-5.75-2.38.38-1.51,4.79-2.15,6.36.76.7.06,4.5.84,6.85-1.53-.63-1.66.41-1.89,1.61l.46.67-.47-.65a4,4,0,0,1-.68,1.79c-.22,1.61.75,2.6,1.53,1.92a1.11,1.11,0,0,0,1.19-.61c2.3,3.7,4.72,8,4.73,7a.73.73,0,0,1,1-.47.66.66,0,0,0,.72.24c.55.21,1,.34,1.25-.37l-.66-.62c.36-7,13.94,5.47,14.39-2.55-2.85,3.58-3.1-1-3.58-4.64,1-.39,2.42-2,3.1-4.68-.32-2.24-1.14-1.29-1.91-1.69.62-1.27,1.14-3.67,2.71-3.4-1.91-1.71,1.13-2.83.44-4.92-.91-1.83-.81.15-1.74-1.15.14-2.79.3-6.69.66-8.91,1.46-.87,4-3.5,6.35-1.63-.28,4.2-3.73-1.56-3.21,2.81,3.33-1.93,1,3.85,3.55,4.6,1.48-1.42,1.44-4.23,1-6.57l-.44.47c-.45-2.06-1.19-6.21.59-8.46,1.19.52,2.07-.46,2.37,1.06l.2-2.85c-.38-.36-.76-.73-1,.09a3.09,3.09,0,0,1,.3-3.71c1.26-.29-5.17-15.21-4.33-14.76a4.26,4.26,0,0,1,.74-2.17c.84,5.15,3.85,16.72,3.58,14.59.7-.87-.86-6.69-2.19-12.48s-2.49-11.54-1.29-12.15c0-1.53-.24-3.37-1.52-3.06.71-2.56,2.39.85,3.64-.94-.2,0-.64.13-.57-.46l1.67-1.7c-1.82-4.07.93-9.81-1.41-14.11,1.31,1.28,3.64,2.78,4.74,5.51l-.68.44c.37.4.73,2.62,2,2.61a9.47,9.47,0,0,0-.29-7.42,14.26,14.26,0,0,1,1.11-1.4,4.09,4.09,0,0,1-.5,0c.83-.83,1-.73,1.43-.39a1.22,1.22,0,0,1,.28.2c3.79-1.39-1.85-10.09.43-14.61-.43-1.4-.62-.17-1.22-1.91a112.26,112.26,0,0,0,4.42-12.67c-1.46-1.7-2.09-1.89-3.91-.11l.83-3.7c4,3.75,4.61-6.6,8.54-2.5,1-1,1.46-3.19,1-5.32-1-.31-2.73-.8-2.47-3.41,1.77-3.5,1.17-2.68,2.83-5.55,1.45-.56,1.89.59,3,.58-1.32-4.81,3.44-3.71,3.65-8.07-.1-2.76.34-8.15-2.07-8.57.58-3.66,2.36-3.43,4.28-2.83l.65-2.93c-.55,4.81-1.28,9.71-2.14,14.66l-2.83,14.86c5.14-10.48,10.38-21.76,12.5-32.76s1.15-21.76-6.21-31.55c9.51-.36,17.47-20.19,15.35-21a107.78,107.78,0,0,1-1.7-13.65,61.09,61.09,0,0,1,1.33-18.5,33.51,33.51,0,0,1,2.7-7.29,28.54,28.54,0,0,1,4.2-5.92c6.83-7.53,18.83-12.9,32.92-17.24,3.09-1,7.68-2.66,11-3.4a1.17,1.17,0,0,1,.65-.05l.41,0a7.19,7.19,0,0,1,.81.13,4.64,4.64,0,0,1,1.51.6,4,4,0,0,1,1.44,1.73,4.21,4.21,0,0,1,.28,1,.93.93,0,0,1,0,.23v.1l.19.34.85,1.64a64.67,64.67,0,0,1,3.24,7.94c1.09,3.19,2,6,2.52,8.38s1.17,4.48,1.77,6.74c-.67-3.88-.61-3.93-1.39-7.76a142.83,142.83,0,0,1,15.65,24.12c.82-1.93,2-2.59,2.61-6.82.2,1.59.4,3.16.55,4.77,5,3,7.52,12.86,10.24,17.17-2.24-.51-1.7,3.25-1.25,6.6l1-1.6c2.11,12.58,6.63,27.11,8.63,38.78a5.31,5.31,0,0,1-.75,3.83l3.67,10.82c-2.74-.33-.79,8.88-3,5.18,4.43,7.6,4.18,16.17,8.81,23.35a783.9,783.9,0,0,0,22.08,86.95l.89-.88c3.45,10,10.21,18.33,10.38,31.19,5,8.43,8.78,21,15,23.72,2.28,10.3,5.73,14,8.63,24.06,2.42-3,4.78,9.46,6.24,4.13,3-7.34-.43-7.25,1.91-13.46Zm-242.11-15.31c-.38-.33-.18-1.11-.16-1.66,0,1.22-2.31-1.88-4.51-5,.74-1.37.69-4.14,1.93-3.93-.16-.17-.29-.31-.4-.41l.48-1a6.73,6.73,0,0,1,1,2.68l-.6-.69c-.86.92-.39,3.68-.23,5.22,1,0,1.07-.59,1.51-.57a6.63,6.63,0,0,1,.94,1.84l.18.66-.17.42a7.55,7.55,0,0,1,.51,1.47A1.39,1.39,0,0,1,1506.24,1239.86Zm3.3-4.12a1.82,1.82,0,0,1,1.64,0C1511.16,1236.71,1510.49,1236.5,1509.54,1235.74Z"/><path class="cls-1" d="M1497.58,1228.44c.21-.14.6.18,1.11.79C1497.84,1228.11,1497.34,1227.6,1497.58,1228.44Z"/><path class="cls-1" d="M1498.69,1229.23l.76,1v0C1499.18,1229.85,1498.93,1229.51,1498.69,1229.23Z"/><path class="cls-1" d="M1675.38,1075.81l-.29-.51Z"/><path class="cls-1" d="M1877.22,900.52a2.39,2.39,0,0,0,.75.21l-.51-.3A.85.85,0,0,1,1877.22,900.52Z"/><path class="cls-1" d="M1882.76,900.92c-.21-.15-.45-.31-.7-.5v0Z"/><path class="cls-1" d="M1883.84,901.33c-.21.06-.6-.11-1.08-.41C1883.57,901.47,1884.05,901.73,1883.84,901.33Z"/><path class="cls-1" d="M2029.15,987.43a2.37,2.37,0,0,1,.12-1.13C2029,987.16,2028.94,987.65,2029.15,987.43Z"/><path class="cls-1" d="M2028.84,981.53l.16-.51a1.23,1.23,0,0,1-.09-.23A4.34,4.34,0,0,0,2028.84,981.53Z"/><path class="cls-1" d="M2029.27,986.3c.07-.21.14-.45.23-.71h0C2029.4,985.84,2029.33,986.08,2029.27,986.3Z"/><path class="cls-1" d="M2059.82,1232.63l-.48.83a309.68,309.68,0,0,0-36.37-37.28c-10.68-5-19.52-14.1-29.55-20.72a311.25,311.25,0,0,0-33.51-18.64c-2.6-1-2.71-4-3.72-6.39-8.92-5.1-18.72-13.66-28.85-19.32a2.06,2.06,0,0,1,.39.41c-5.16-3.29-7.08-8.36-12.15-11.55-.45.66-1.22.14-1.84.21.37-.9-1.56-2.3-4.22-3.7s-6-2.77-8.68-4a29.6,29.6,0,0,1-6.4-3.64c-1.45-1.27-2.22-2.58-1.8-3a3.19,3.19,0,0,1-.72-.91c-.21-3.75,2-7.89,4.34-11.24s5-6.21,6-9.27c-.5-1-.91-2-1.35-3.11a30.91,30.91,0,0,0-1.35-3.23c2.13-.36-.45-2.23.91-3.47,4.34.23,6.2-.37,6.62-1.21s-.66-1.8-2.44-1.7c1.49-3.58,4.68-6.11,7-8.86l2.5-4.88c.7-1.49,2.1-1.25,3.84-.44,2.25-3.4,2.59-1.24,6.27-3.38,1.24.68,2.6-1.82,4-4.56s2.65-5.71,3.4-5.8l-.33.76c4.37-2.92,10.3-1.17,14.45-4.22,12.36-7.46,23.32-18.77,34.22-26.37-1.62-2.23-1.9,2.3-4.3-.44,6.37-4.48,14.82-7,20.7-10.94a11.25,11.25,0,0,1,4.53.32c2.37-.46.26-1.82,1.76-2.49l1.63,1.89c.65-2.93,4.26.32,5.3-1.57-.47-.89.07-1.41.7-1.73,1.47,2.15,1.67-1.26,2.86.82l-.09-.18c.36-.17.52-.46,1.16-.33.09-.62.65-3.28,1.34-6,.36-1.35.72-2.7,1-3.79s.53-1.89.58-2.22l.48.26c.87-.5.51-2.47-.22-2.66.4-.13.8-.21,1.2-.32l-.07.22,1.18-.3a3.71,3.71,0,0,1,1,2.41c.28-1.14.8-1.77,1.53-1.53l-1.75-.85-2-.87-4.6-2c.48-1.22,2.57-.64,3.35-1.2,1.73,1.14,4.29,1.86,6.09,2.59.27-.22-.23-3.12.86-2.06.82,1.89.86-.34,1.75,1-.46,1.12-1.23.91-2,.95.72,2.31,2.06,1.11,2.68,1.76.1-.74,1.47-.32,2.12-1,0,1.52.29,1.66.67,1.91l.13-.36-.12.36a1.42,1.42,0,0,1,.57.69c.47.2.71-.7.48-1.51a2.24,2.24,0,0,0-.23-1.2c.13-.27.26-.53.4-.8,1-1.86,2.26-3.67,2-3.7a1.28,1.28,0,0,1-.13-1,1.39,1.39,0,0,0,.12-.65c.11-.56.2-1.08-.09-1.3l-.26.64c-1.31-.27-.9-3.51-.22-6.85.7-3.57,1.76-7.25-.62-7.61,1.91,3-.65,3-2.52,3.46a4.82,4.82,0,0,0-2.82-3c-1.26.35-.61,1.16-.75,1.94-.77-.55-2.2-.86-2.3-2.44-.66,2-1.86-.93-3,0-.87,1.1.25.77-.28,1.83-1.62.14-3.87.59-5.23.67-.94-1.28-3.38-3.14-3-5.71,2.69-.54.27,3.82,2.73,2.51-2.18-2.82,2-1.65,1.84-4.2-1.29-1.24-3.12-.63-4.48.24l.45.33c-1.19.82-3.4,2.5-5.49,1.39-.13-1.23-1.1-1.8-.24-2.45-.65.16-1.25.38-1.88.58-.07.44-.15.89.47.91-.46,1.21-1.48,1.12-2.42.78-.38-.55-2.1,1.81-3.61,4.13s-2.72,4.77-2.8,4.35a2.17,2.17,0,0,1-1.55.15c.83-.9,2-2.31,3.15-3.67,2.06-2.47,4.14-4.83,3.41-4.25-.84-.35-3.66,2.83-6.14,6s-4.76,6.27-5.76,5.53c-.77.61-1.58,1.5-.67,2.41-1.69.44-1-2.27-2.61-2.57.1.18.44.47.11.65l-1.85-.66c-1,3.08-5.53,3.29-6.08,7-.22-1.55-1-4-.31-6.06l.64.35c0-.46.88-1.68.1-2.67-1.86.32-2.9,1.37-3.53,3.43a9.67,9.67,0,0,1-1.38-.24c.1.13.21.22.32.38-.94-.27-1-.41-1.1-.93a1,1,0,0,1-.08-.3c-3.14-2.29-3.72,5.88-7.23,6.23-.36,1,.33.55-.08,1.78a43.8,43.8,0,0,0-8.61,2.49c.22,1.87.55,2.42,2.55,3l-2.19,1.09c-1-4.68-6-.37-6.81-5.18a2.66,2.66,0,0,0-3,1.79c.56.92,1.48,2.39.16,3.44a38.32,38.32,0,0,1-4.32.56c-1.23-.79-1-1.67-1.78-2.48-1.21,3.26-3.93-.73-6,1.25-1.12,1.42-3.74,3.74-2.27,5.69-1.93,1.41-3,0-4.11-1.68l-1.67,1a107.93,107.93,0,0,1,16.1-10.8c-16.19,2.36-33.78,7.08-31.21,27.68-3.41-3.29-8.45-3.65-12.52-2.91s-7.31,2.71-6.69,3.7a68.84,68.84,0,0,1-4.45,9.33c-4.08,7.22-9.35,13.8-15.07,20.85-.54-.5-1.33-1-1.1-2,7.51-4.44,4.36-7,1.71-4.75-1-3.65-.35-7.32-.6-10.57-.55-1.51-1.12-3-1.76-4.53-.63-1.29.49-2,2.27-2.65-1.06-3.3.79-2.33,1.56-5.78,2.62-.83-4.14-8.7-3.34-9.68l.39.57c.48-4,5.57-6.63,5.82-10.54,2-10.85.15-22.72,1.16-32.78-2.75-.13.59,2.23-3.06,2.31.55-5.94,4-11.88,4.56-17.86a11.21,11.21,0,0,1,3-2.85c1.06-1.9-1.29-1.15-.92-2.55l2.49-.15c-2-2.07,2.8-3,1.8-4.89-1-.12-1.12-.82-1-1.51,2.64,0-.15-2.11,2.26-2l-.2,0c0-.41-.12-.71.34-1.21-.91-.79-8-8.26-9.13-9.07l.44-.37c-.06-1.1-2-1.6-2.49-1l.18-1.35.17.16.18-1.35a3.31,3.31,0,0,1,2.62-.1c-.91-.78-1.39-1.64-.91-2.4a44.67,44.67,0,0,1-6.71,6.88c-.89-.93.54-2.56.27-3.55,1.77-1.16,3.29-3.56,4.52-5.43-.14-.42-3.07-.76-1.76-1.68,2-.43-.06-1.07,1.42-1.83,1.07.92.57,1.8.45,2.71,2.39-.11,1.66-2.19,2.35-2.9-.75-.36.07-2.1-.58-3.22,1.5.34,1.67-.14,2-.68l-.41-.32.42.3a1.74,1.74,0,0,1,.76-.8c.29-.74-.62-1.24-1.44-1a1.74,1.74,0,0,0-1.21.24c-2.13-1.81-4.35-3.9-4.41-3.47a1.12,1.12,0,0,1-1,.18,1.1,1.1,0,0,0-.69-.14c-.54-.12-1-.2-1.26.12l.63.32c-.68,3.28-13.67-3.15-14.49.63,3-1.59,3,.61,3.36,2.35A5.22,5.22,0,0,0,1859,901c.22,1.08,1.08.66,1.83.88-.68.58-1.26,1.71-2.83,1.53,1.86.87-1.21,1.32-.59,2.34.85.9.81,0,1.7.6a29.75,29.75,0,0,1-.9,4.24c-1.47.38-4.1,1.58-6.37.63.35-2,3.71.84,3.25-1.27-3.38.84-.88-1.88-3.42-2.3-1.53.64-1.57,2-1.17,3.14l.45-.22c.42,1,1.09,3-.73,4.07-1.17-.27-2.07.18-2.35-.56l-.24,1.38c.37.18.75.36,1,0,.91.67.38,1.31-.32,1.8-1.25.13,5.14,7.4,4.36,7.17,0,.47-.4.76-.71,1.05-.89-2.49-3.94-8.12-3.64-7.09-1.38.82,6.07,11.33,3.7,11.91.08.74.33,1.63,1.6,1.48-.63,1.23-2.41-.41-3.61.46.2,0,.63-.07.58.21l-1.61.83c1.94,2-.66,4.75,1.91,6.81-1.37-.61-3.76-1.31-5-2.62l.67-.22c-.39-.19-.81-1.27-2.08-1.26-.86,1.23-.64,2.29.58,3.61a11,11,0,0,1-1,.69c.17,0,.31,0,.5,0-.79.41-.92.37-1.41.2a1.08,1.08,0,0,1-.29-.09c-3.71.73,2.29,4.88.34,7.11.52.68.64.07,1.33.91a30,30,0,0,0-3.53,6.27,3.3,3.3,0,0,0,3.9-.06l-.54,1.82c-4.23-1.71-4.09,3.36-8.32,1.48a1.74,1.74,0,0,0-.52,2.65c1.08.11,2.79.29,2.77,1.57a29.21,29.21,0,0,1-2.29,2.82c-1.39.34-1.94-.21-3-.16,1.76,2.3-3,2-2.8,4.12.4,1.36.54,4,3,4.11-.12,1.82-1.91,1.8-3.89,1.61l-.29,1.47a64.09,64.09,0,0,1,1.8-14.75c-8.39,10.69-15.85,23.43,1.78,31.86-9.4.85-13.82,11.31-11.51,11.54a41.56,41.56,0,0,1,4.27,6.61c7.24,14.1,4,29.35.48,45.18-1.79,8.78-3.69,32.63-6.31,41.66-.33,1.31-.63,2.61-.88,3.93.82-2.19.82-2.19,1.63-4.38a163.79,163.79,0,0,1,6.72,15.2c1.34-.86,2.65-1,4.48-3.06l-.87,2.47c3.92,2.19,3.81,7.34,5.49,9.74-2-.5-2.43,1.42-2.71,3.1l1.34-.68c-.76,6.4,1,13.79.84,19.5,0,.8-.74,1.41-1.43,1.78l1.67,5.45c-2.74-.38-2.33,4.58-4.09,2,3.31,4,1.39,8.23,4.82,12.07a156.16,156.16,0,0,0,8,43.06l1-.38c2,5,7.46,9.3,5.83,15.47,3.76,4.28,5.88,10.44,11.62,12,.93,5,3.86,6.94,5.48,11.84,2.78-1.36,3.55,4.69,5.67,2.19,3.85-3.4.48-3.47,3.59-6.35l-1,.11a187.28,187.28,0,0,0,6.89-39.27c-2.59-8.71-.88-18.25-1.77-27.34-.57-4.52-1.32-9.21-2.19-13.77,1.44.48,2.8.91,4.13,1.34,3.32,1.08,6.48,2.19,9.48,3.44-.07-1.75.55-2.91-.43-6l2,2.64c4.68-1.36,10,2.83,13.5,3.41-1.78,1.23,0,3,1.56,4.62l.11-1.6c6.18,5.69,14.94,10.19,20.77,14.88a2.9,2.9,0,0,1,1,2.55l6.68,3c-2.08,1.86,3.31,5.49-.45,4.81,6.23.63,9.39,5.48,15.49,5.87a268,268,0,0,0,49.52,28.34l.24-1.09c6.38,2.52,14.28,1.7,19.64,8,6.78.53,14.46,3.89,19.71.7,5.77,3.36,9.6,2.65,15.69,5.37.35-3.26,7.09,1.06,5.85-2.61C2063,1234.83,2060.84,1237.38,2059.82,1232.63ZM2031,974c.39.06.28.72,0,1.63A4.14,4.14,0,0,1,2031,974Zm-1.79,6.46c-.08.21-.14.4-.2.58.39.88,1.3.36,1.81.32a13.3,13.3,0,0,0-.23-1.54,2.65,2.65,0,0,1,.65-.87l.24-.15.15.18a2.34,2.34,0,0,1,.55-.47c.12.06.24.21.33.55-.14.38-.41.15-.61.12.43.07-.76,2.24-1.61,4.33-.48-.76-1.41-.7-1.44-2,0,.17-.08.31-.11.41l-.39-.49A2,2,0,0,1,2029.2,980.44Zm-153.48-84.75c.37.17.13.53.09.78.08-.56,2.22,1,4.27,2.5-.81.61-.88,1.9-2.11,1.76l.38.21-.53.45a2.51,2.51,0,0,1-.91-1.29l.55.33c.9-.39.58-1.69.49-2.42-1,0-1.09.24-1.54.21a3.12,3.12,0,0,1-.85-.89l-.15-.32.19-.19a2.5,2.5,0,0,1-.44-.71C1875.21,896,1875.38,895.8,1875.72,895.69Zm-3.49,1.8a3.64,3.64,0,0,1-1.63-.09C1870.67,897,1871.32,897.1,1872.23,897.49Z"/><path class="cls-1" d="M571.14,1296.38a1.33,1.33,0,0,0-1,1.23c2.21,0,4.32.12,6.34.24-.24,0-.47-.12-.7-.19C576.21,1297.13,572.83,1296.56,571.14,1296.38Z"/><path class="cls-1" d="M564.38,1372.12a11.46,11.46,0,0,1,2.48.79c-.93-.58-1.9-1.22-2.93-1.93C563.79,1371.18,563.87,1371.52,564.38,1372.12Z"/><path class="cls-1" d="M647.81,1156.18a414.55,414.55,0,0,0-5.65-87.65s0,0,0-.06c-1-10.82-2.1-19.34-2.53-24.22a280,280,0,0,0-8-29.82c-2.06-6.21-4.52-12.77-7.34-19.23a185.74,185.74,0,0,0-9.41-18.65c-6.73-11.74-14.45-21.24-19.86-26.44s-8.17-6.44-5.9-1.93a130.08,130.08,0,0,0-12.28-12.73l-3.42-3-3.56-2.84c-1.2-.95-2.52-1.88-3.85-2.73-.67-.43-1.35-.8-2-1.21s-1.25-.68-1.88-1a38.49,38.49,0,0,0-19.42-4.16,32.87,32.87,0,0,0-5.86.86l-.18.05s-.08,0-.07,0l0-.09.15-.38.3-.76.59-1.52c.4-1,.79-2,1.19-3l4.69-12q3.16-8.08,6.36-16.28,3.57-9.2,7.16-18.5c4.86-12.5,9.74-25.12,14.75-37.71s10.1-25.22,15.37-37.73l4-9.34c1.34-3.11,2.76-6.16,4.13-9.25s2.82-6.1,4.27-9.11l2.18-4.51,2.32-4.32,1.15-2.16c.38-.71.77-1.44,1.21-2.19L609,748.1q2.52-4.47,5-9c3.26-6,6.4-12.11,9.37-18.24,6-12.23,11.41-24.65,16.36-37.09a567.54,567.54,0,0,0,23.57-74.55c.47-3.2,1-6.33,1.41-9.43s.8-6.15,1.2-9.15c.63-6,1.35-11.83,1.76-17.48,1-11.29,1.42-21.89,1.75-31.85,0-5,.13-9.81.14-14.49s-.1-9.21-.22-13.61-.34-8.67-.5-12.82-.52-8.17-.76-12.09-.67-7.72-1-11.44-.71-7.33-1.11-10.86c-.19-1.77-.39-3.52-.58-5.24-.09-.87-.19-1.73-.28-2.58s-.24-1.7-.35-2.55c-.47-3.37-.92-6.68-1.37-9.94L658,409.45c-1.83-11.71-3.61-23.36-5.88-35.67-1.12-6.16-2.24-12.5-3.6-19.08s-2.8-13.45-4.38-20.67-3.48-14.78-5.46-22.81c-1-4-2.07-8.13-3.22-12.37s-2.36-8.61-3.6-13.11-2.62-9.14-4.06-13.91l-4.5-14.78q-2.49-7.59-5.16-15.68l-2.74-8.21-3-8.44A125,125,0,0,1,609,208.47a28.64,28.64,0,0,1-.09-7,27.6,27.6,0,0,0-.1-7.06A97.86,97.86,0,0,0,605,178.11c-1.83-5.74-3.66-11.37-5.57-16.88s-4-10.85-6.09-16.11-4.28-10.37-6.46-15.39l-3.33-7.44c-.56-1.22-1.09-2.45-1.68-3.66L580.06,115q-3.55-7.14-7.1-14c-1.15-2.29-2.45-4.51-3.7-6.72l-3.75-6.57c-2.51-4.33-4.94-8.59-7.63-12.66L554,69l-1-1.5-.49-.75-.12-.19-.18-.28-.35-.58L549,61.12l-1.45-2.3a6.94,6.94,0,0,0-.76-1.1l-1.08-.85-4.28-3.33c-1.4-1.11-2.82-2.17-4.27-3.16-1.14-.75-2.17-1.49-3.34-2.2a97,97,0,0,0-14.67-7.62,59.65,59.65,0,0,0-17.81-4.46l-2.57-.1a24.67,24.67,0,0,0-2.58,0,37.08,37.08,0,0,0-5.38.56c-.91.16-1.82.34-2.71.53s-1.84.53-2.74.83a34.63,34.63,0,0,0-5.27,2.22A33.53,33.53,0,0,0,471.27,47,32.92,32.92,0,0,0,468,51.06c-.51.69-.87,1.4-1.3,2.1s-.83,1.42-1.15,2.12a44.21,44.21,0,0,0-4.21,16.19,70.51,70.51,0,0,0,3.74,27l.66,3,.78,3,1.42,5.29c.23.86.46,1.72.7,2.59s.41,1.76.61,2.64c.41,1.77.82,3.54,1.22,5.33,1.47,7.18,2.64,14.57,3.47,22s1.22,14.81,1.29,22-.14,14.19-.76,20.73a147.71,147.71,0,0,1-6.05,32.59l-1,2.89c-.32.94-.68,1.91-1,2.78-.67,1.75-1.31,3.29-1.93,4.59-1.25,2.62-2.35,4.23-3.36,4.73-.12-3,.56-7.88,1.55-13.45.86-5.11,1.95-11.05,2.71-17.18,1.67-12.24,2.15-25.1,1.38-32.06-.9-1.69-1.73-3.12-2.5-4.31a22.79,22.79,0,0,0-2.22-2.89c-1.35-1.47-2.46-2.08-3.33-2-1.8.28-2.54,3.49-3,9s-.4,13.25-.87,22.63c-.14,2.33-.29,4.77-.45,7.3s-.36,5.14-.69,7.78c-.15,1.33-.29,2.69-.44,4.06s-.38,2.72-.57,4.11-.47,3.12-.73,4.77-.55,3.4-.83,5.13c-2.09,13.58-4.16,28.06-6.36,42.86s-4.51,29.84-7,44.36c-5,29.06-10.66,56-17.46,74.51-.84,7.48,4.44-5.83.52,12.12q12.81-55.18,25.91-110.27c4.25,4.07-2.63,46.32-10.73,92.86-3.81,21.8-7.87,44.54-11.24,64.72v0a.08.08,0,0,1,0,0c-6,26.21-11.74,51.23-16.55,72.81h0c-2.08-.46-2.35-9.24-3.07-15.12-.64-5.22-1.63-8.15-4.57-.89a188.38,188.38,0,0,0-6,19.52c-1.3,4.87-2.76,10.62-4.41,17.38-.09.34-.17.7-.26,1.06.1-10.9-.15-22.16-.66-33.56-.55-9.47-1.05-19.1-1.92-28.64l-.59-7.18c-.2-2.4-.35-4.74-.64-7.26-.54-4.94-1-9.91-1.69-14.74-2.55-19.44-6.1-38-9.47-55.18-2.89-14.74-5.66-28.46-7.72-40.79-2.1-5.35-4.42-10.88-6.78-16.73q-3.79-9.15-8-19.32C341.24,291,328,258.38,313.5,216.62c-6.06-21.51,2.18-4,5.9,2.31q-6.86-17-14.18-34.31-3.66-8.66-7.47-17.39-1.92-4.36-3.85-8.76l-2-4.41L290,149.82q-1.58-3.76-3.18-7.55l-3.34-7.69q-3.39-7.67-7-15.32T269.13,104l-1.92-3.81-2-3.87L263,91.88l-2.39-4.5a250.24,250.24,0,0,0-20.77-33.15,130.78,130.78,0,0,0-11.66-13.3,56.76,56.76,0,0,0-13.67-10.28c-1.25-.7-2.59-1.25-3.91-1.83l-2.05-.72c-.68-.25-1.41-.38-2.11-.58a18.39,18.39,0,0,0-8.91-.06,16.17,16.17,0,0,0-7.74,4.76,26.79,26.79,0,0,0-4.84,7.65,52.7,52.7,0,0,0-3.85,17.7,71,71,0,0,0,.06,9.22c.21,3.08.7,6.15,1.18,9.25q1.47,9.33,3.18,19c.57,3.2,1.08,6.41,1.6,9.59s.93,6.36,1.39,9.51.72,6,1.08,9.08.54,6,.82,8.94l.57,9c.17,3,.2,6,.31,9A337.35,337.35,0,0,1,190,186.46q-.57,5.94-1.36,11.87c-1.23,8.11-2.82,16.5-4.82,25.15-16.18,70-46.16,219.83-46.16,219.83s-7.93,26.28-14.79,66.55c0,0,0,0,0,0,1.35-10.65,2.84-20.77,4.42-30.3q1.68-10.2,3.54-19.49c.6-3.09,1.24-6.11,1.87-9.05.33-1.47.65-2.93,1-4.36l1-4.11q1-6.06,1.85-11.62t1.77-10.73c1.16-6.8,2.25-12.9,3.31-18.29l-8.79,40.18-.73,2.37-.76,2.57c.45-2.24.87-4.31.93-5.07.12-1.47.28-3.09.35-4.31s.09-2.2.06-2.93c-.06-1.46-.32-2-.72-1.72a6.92,6.92,0,0,0-1.62,2.67c-.33.73-.68,1.59-1.06,2.55l-.57,1.51-.51,1.23-.3.55-.14.28c0,.08-.12.27-.18.4-.25.56-.5,1.14-.75,1.73-.51,1.18-1,2.39-1.51,3.62-1,2.45-2,4.95-2.91,7.33-1.85,4.74-3.45,8.93-4.52,10.95s-1.57,1.87-1.11-2.09c.2-1.72.57-4.17,1.2-7.47q-.83,3.39-1.65,6.82c-1.94,8.22-3.87,16.62-5.67,25.18-3.66,17.1-6.93,34.81-9.69,52.78C95.4,577,92.34,614,93.32,648.62c.18,8.65.78,17.13,1.42,25.39q.65,6.19,1.28,12.21c.19,2,.52,4,.8,5.95s.58,3.92.87,5.85.57,3.85.9,5.74.74,3.76,1.1,5.62.74,3.68,1.11,5.49.7,3.6,1.18,5.36c1.78,7,3.43,13.74,5.59,19.94,1,3.11,2,6.13,3.09,9s2.28,5.62,3.41,8.26a123.51,123.51,0,0,0,7.1,14.2c1.22,2.08,2.32,4.07,3.58,5.86s2.49,3.43,3.7,4.93a43.65,43.65,0,0,0,6.91,7.15c-1.39-2.75-2.75-5.67-4.12-8.5l-2.05-4.29c-.34-.71-.7-1.42-1-2.14l-.91-2.19c-2.4-5.84-5-11.63-7-17.61-.85-4.15-2-8.64-2.88-13.44l-1.47-7.3c-.24-1.24-.54-2.48-.74-3.74s-.42-2.53-.64-3.79c-.82-5.09-1.83-10.19-2.41-15.23s-1.39-9.93-1.72-14.57c-1.81-18.53-1.4-32.4,1.13-30.5a406.08,406.08,0,0,0,12.27,56.26,304.85,304.85,0,0,0,21,61.41c67.09,141.83,98.49,193.22,99.92,217.49-5.86,10.75-19.94,39.57-32.51,92a0,0,0,0,0,0,0h0a53,53,0,0,0,.36-6.84c-.13-2.17-.76-2.23-2.14.69.65-3,1.39-5.82,2.23-8.45s1.79-5,2.69-7.21a95.73,95.73,0,0,1,4.8-10q4-15.44,9.3-30.56l1.31-3.78,1.4-3.75,1.41-3.75,1.5-3.72c.5-1.24,1-2.49,1.52-3.72l1.52-3.53c1-2.24,2-4.47,3.06-6.63l.44-.9.11-.22a2.29,2.29,0,0,0,0-.25l-.07-.5c-.1-.67-.15-1.34-.3-2s-.25-1.32-.4-2l-.49-2c-.73-2.57-1.56-5.13-2.52-7.56-2-5.28-4.38-10.56-6.86-15.77-5-10.44-10.41-20.75-15.86-31.06q2,7.47,3.87,14.93A155.62,155.62,0,0,0,228.56,981l4.74,10.69c.66,1.52,1.26,3.1,1.79,4.72.25.81.5,1.63.69,2.47l.27,1.26c.1.23-.06.4-.11.59l-.22.57c-.66,1.66-1.31,3.31-2,5l-1,2.63c-.45,1.11-.95,2.2-1.4,3.31-.91,2.22-1.91,4.4-2.89,6.59s-2,4.36-3.15,6.52c-.55-1.07-1.55-.55-2.9,1.29a53.14,53.14,0,0,0-5,9.13c-3.85,8.31-8.23,20.73-12.27,34.72-1,3.49-2.06,7.08-3,10.74s-1.93,7.35-2.82,11.08c-1.74,7.46-3.52,15-5,22.23-.74,3.63-1.57,7.18-2.2,10.64s-1.32,6.81-2,10c-.56,2.79-1.1,5.46-1.6,8-.4,2-.8,3.81-1.19,5.46s-.48,3.55-.72,5.27c-.16,1.54-.33,3.05-.49,4.52s-.31,2.94-.46,4.34l-.21,2.1c0,.34-.07.68-.11,1a1.9,1.9,0,0,1,0,.25l-.23,0-.47-.09a144.2,144.2,0,0,0-18.64-2.15l-2.71-.15c-1.16-.07-2.3-.14-3.43-.18-2.26-.12-4.46-.18-6.61-.24-4.29-.1-8.36-.08-12.21,0a191.66,191.66,0,0,0-36.55,4.14,98.9,98.9,0,0,0-20,6.41c-1.11.53-2.12,1-3,1.51s-1.69,1-2.39,1.44a18.07,18.07,0,0,0-3.2,2.55,8.43,8.43,0,0,0-2.48,4.39h0C35.87,1196,3.9,1223.54.87,1280.77v0a.28.28,0,0,1,0,.09A132.74,132.74,0,0,0,0,1294.77a103.9,103.9,0,0,0,4.2,29.74A113.92,113.92,0,0,0,16.27,1352a143.09,143.09,0,0,0,17.58,23.33,179.59,179.59,0,0,0,12.93,12.58h0l0,0c60.37,58,161.61,85.2,188.4,91.61h0c1.53.61,3.06,1.2,4.59,1.75a38.91,38.91,0,0,0,5.17,1.46q5.12,1.21,10.1,2.2c6.66,1.31,13.19,2.33,19.66,3.14,12.94,1.63,25.64,2.46,38.64,3.2l11.82.67,60.66,7.93q5.55.73,11,1.77h.1c-2,0-4.65-.17-7-.17a22,22,0,0,0-5.22.33c-.49.25.74.63,4.91,1.4,5.75.63,11.49,1.53,17.18,2.71q4.26.88,8.49,2c2.81.72,5.63,1.55,8.49,2.3,9.81,2.59,19.71,4.76,29.68,6.44l.08,0c41.62,8.82,100.59,12.41,136.1-24.54a140.65,140.65,0,0,1,14-12.94c16.59-13.15,25.5-17.82,28.29-19.11,1.24-.58,2.47-1.16,3.69-1.76,13.86-6.9,76.61-39.14,94.35-65.75,20-30,68.3-99,31.11-184C735,1148.74,647.81,1156.18,647.81,1156.18ZM623.1,1317.84a11.51,11.51,0,0,1-.69,2.36c-.08.17-.15.32-.23.46a2,2,0,0,1-.22.3l-.2.2a43,43,0,0,0,.47,4.41,9.46,9.46,0,0,1,0,2.26,13,13,0,0,1-.71,3.13c.32-1.48-1.67,3.94-1.12.75a22.52,22.52,0,0,0-1.32,4.45,41.28,41.28,0,0,1-1.39,4.89c-.92,0-.77-2.52-3.13,1.87-1.48,2.95-1.22,3.29-.8,3.62a.92.92,0,0,1,.47.76,5.33,5.33,0,0,1-.81,2.57c.73-1.17,1.34-2.41,2-3.65a12.85,12.85,0,0,1-1.11,4,33.75,33.75,0,0,1-2.51,4.86c-.51.84-1,1.7-1.58,2.55l-1.77,2.48c-1.13,1.69-2.44,3.18-3.51,4.65a25.22,25.22,0,0,1-3.34,2.37l-1.73,1.09-.86.54-.92.51a39.26,39.26,0,0,0-3.64,2.3,32.44,32.44,0,0,0-3.87,2.79c.23-.34,1.38-1.58.84-1.74a7.36,7.36,0,0,0-2,1.21c-.66.55-1.38,1-1.87,1.46-2.49,2.68,1.57.61.84,2l-1.73,1.52c-.31.26-.56.49-.93.78a2.72,2.72,0,0,1-.71.46l-.78.36a8.21,8.21,0,0,1-1.49.56c-.54.12-1.1.23-1.69.32a9,9,0,0,1-1.8,0,7.2,7.2,0,0,1-1.85-.28,14.54,14.54,0,0,1-2.72-1.56,17.85,17.85,0,0,1-2.27-1.81c-2.13.4-4.28-.71-6.51-2.29-1.08-.82-2.29-1.7-3.51-2.66a37,37,0,0,0-4.09-2.82c-.17-.9-1.93-2.12-3.7-3.34s-3.45-2.53-3.58-3.43c-1.22-1-.87-1.71-.33-2.45-2.73-2.32-5.69-4.94-8.91-7.87-.18,1.11.58,3.22,1.75,5.09a13.68,13.68,0,0,0-1.63-1.62c1.27,1.85,6.59,7.46,3,5.78a14.2,14.2,0,0,1-3.91-5.12,12.6,12.6,0,0,0-3.7-4.72c2-.59-6.21-6.72-1.62-5.09q-1.7-1.57-3.46-3.27c-.54-.35-1.08-.65-1.66-1,2.34,3.16-.87-.46,0,1.59-2.4-2-4.74-4-7-6s-4.47-4.11-6.64-6.17l-1.61-1.55-.8-.78-.4-.38-.48-.52a9.94,9.94,0,0,1-.15-13.14c.51-.57,1-1.16,1.53-1.7,3.58-2.85,6.81-5.43,10.14-7.94a96.47,96.47,0,0,1,10.59-7.06c2.59-.72,3.19-.31,3,.28a19.26,19.26,0,0,1-1.42,2.22c1-.4,2-.69,3-1s2-.65,3.1-.87c-1,.42-2,1-2.94,1.46l-.23.12a82.76,82.76,0,0,1,19.35-3.5c.51-.27,1.4-.58,2.18-.89,1.39-.51,2.43-1.08.22-1.67-3.06.2-6.12.42-9.17.89-2.3-.15.75-1.3,4.09-1.79a28.34,28.34,0,0,0,4.56.15,19.2,19.2,0,0,0,3.25-.65c.21.32,1.08.39,2.12.39s2.22,0,3.08.12c1.7-.24,2.77-.55,4-.69a17.33,17.33,0,0,1,5.19.19c-4,1.64,3.87,2.65,7.09,4.39-1,0-2.31.06-3.78.07a97.13,97.13,0,0,1,10.11,1.62h0c1.44,0,2.88.13,4.34.24-5-1.53-8.78-2.73-12.38-3.71,5.2.83,9.36.82,13.5,1.22a24,24,0,0,1,12.51,4.37c2.57,1.33,4.26,2,6,3,.43.26.86.52,1.31.82a11.81,11.81,0,0,1,1.53,1.34,12.48,12.48,0,0,1,2.81,4.58c.2.94-.19.46-.53.12s-.62-.58-.24.66a15.74,15.74,0,0,0,.89,2.54,16.31,16.31,0,0,1,.81,1.62c.09-.35.19-.72.27-1.09C623.34,1316.18,623.25,1317,623.1,1317.84Zm-73.52-20.63c-1.22.35-2.45.63-3.65,1l-3.6,1.19-.56-.14C544.34,1298.48,546.94,1297.76,549.58,1297.21Zm40.83-1.65.05-1.39c1.53.69,3.06,1.31,4.55,2.06C593.35,1296.16,592.05,1295.56,590.41,1295.56ZM344.58,688.8s0,0,0,0c6.64-36.76,13-64.62,17.18-95-.49,6.15-1.16,12.5-2.06,19.21-1.37,10.57-3.39,22-5.94,35s-5.71,27.52-9.33,44.36C344.49,691.13,344.54,689.94,344.58,688.8Zm29.86,6.65q.13,6.84.26,13.54c0,2.23.17,4.43.33,6.62s.31,4.35.46,6.49c.32,4.29.67,8.49,1.05,12.57,1,8.13,2.21,15.78,3.52,22.75l2.26-7q.78,6.38,1.5,12.16.89,5.76,1.61,11t1.31,9.94c.42,3.14.68,6.14,1.14,8.95,1.64,11.27,2.52,20.16,2.88,27.4,1.15,14.37.1,22.13-1.23,28.87l-1,5c-.15.82-.3,1.65-.46,2.49s-.23,1.7-.32,2.58a67.52,67.52,0,0,0-.16,12.61c.18,2.56.5,5.4,1,8.62.25,1.61.53,3.31.86,5.11l.06.34,0,.17v.19l0,.29a3,3,0,0,0,0,.3c0,.13,0,.26,0,.39a27.07,27.07,0,0,0,2.28,7.8c-.07-2.5-.14-4.62-.07-6s.3-2.09.65-2.08c.65,0,2,2.76,3.39,6s3,6.74,3.84,7.39c.44.31.71-.13.64-2a90.42,90.42,0,0,0-1.53-11c0-.82,0-1.7,0-2.42,0-.37.05-.74.08-1.09a2.45,2.45,0,0,0,0-.3l0-.51c0-.35-.05-.68-.07-1a63.12,63.12,0,0,1-.08-6.93,23.64,23.64,0,0,1,1.86-8.91c2-4.16,5.1-5.33,7.95-6.83l.41-.22c5,20.39,11.06,42,18.25,64.91-32.83-1.49-76.12-1.49-101.49,6-1.39-24.43-2.46-45.6-1.53-72.35,1.81-3.23,3.51-4.37,5-3-1.22,17-2,22.07-.63,29.13.47-2.54,1.24-6.28,2-6.38.37,0,.72.82,1,3.19.15,1.18.31,2.75.49,4.77.07,1,.16,2.13.25,3.37.07,1,.15,2.17.23,3.42l.06-5.36c0-2,0-4,.09-6,.1-4,.18-8.05.39-12.07l.26-6,.37-6c.22-4,.57-8,.88-12.06,1.33-16.06,3.26-32.13,5.49-48.19l4.3,4.59c.59-7.47,1.19-14.66,1.92-21.6s1.46-13.61,2.24-20,1.63-12.63,2.46-18.61,1.74-11.71,2.65-17.23c3.62-22.14,7.77-41.07,12.07-58.52s8.74-33.49,12.84-49.9c1.34-5.38,2.64-10.81,3.9-16.33-.19,1.5-.38,3-.57,4.55-.51,3.84-1,7.82-1.58,11.91q-.4,3.08-.83,6.23c-.3,2.1-.5,4.24-.76,6.39-.49,4.31-1.09,8.7-1.45,13.17-.21,2.23-.43,4.48-.64,6.74s-.48,4.53-.59,6.82q-.45,6.86-.89,13.79c-.19,2.31-.19,4.62-.27,6.93s-.13,4.62-.19,6.93l-.18,6.92C374.34,690.88,374.42,693.17,374.44,695.45Z"/><path class="cls-1" d="M517.89,1314.4a49.22,49.22,0,0,1,12.69-9.11,29.93,29.93,0,0,1,5.11-2.86,47.12,47.12,0,0,0-9.85,5A40.07,40.07,0,0,0,517.89,1314.4Z"/><path class="cls-1" d="M619.79,1314.81a11.16,11.16,0,0,0-2.83-3.63,29.81,29.81,0,0,0-3.26-2.29l-.79-.55c.66.49,1.25,1,1.79,1.45a12.26,12.26,0,0,1,4.08,10.54A84.35,84.35,0,0,1,616.9,1331a16.57,16.57,0,0,0,1.53-4.75c0,.61.4.23.43,1.09a30.42,30.42,0,0,1,.56-3.37,8.93,8.93,0,0,1,.74-2,3.15,3.15,0,0,1,.76-.93,2.62,2.62,0,0,1-.32-.53A9.93,9.93,0,0,0,619.79,1314.81Z"/><path class="cls-1" d="M610.49,1306.24c0-.59-.1-1.19-.17-1.8-.57-.27-1.15-.5-1.73-.73s-1.15-.47-1.74-.66c-.17-.24.08-.52-1.1-.92-2.59-.48,1.45,1.39.93,2-1.16-.38-2.34-.72-3.51-1a42.46,42.46,0,0,1,9.29,4.92l-.36-.3A17.57,17.57,0,0,1,610.49,1306.24Z"/><path class="cls-1" d="M600.39,1302.08c.12,0,.19,0,.14-.1a7,7,0,0,0-3.47-.92Q598.82,1301.54,600.39,1302.08Z"/><path class="cls-1" d="M120.82,444.89l1.43-5.34c.51-2.79,1-5.53,1.49-8.22q.77-4.4,1.51-8.64,1.44-8.52,2.64-16.54-2.06,10.86-3.65,19.37c-.52,2.83-1,5.47-1.44,7.9-.22,1.22-.42,2.39-.62,3.51-.09.53-.19,1.05-.27,1.56l-.15.94-1,4.08c-.35,1.5-.69,2.91-1,4.24-.59,2.65-1.11,5-1.51,7q-.15.8-.3,1.53c.45-1.8.89-3.6,1.35-5.39C119.8,448.89,120.31,446.89,120.82,444.89Z"/><path class="cls-1" d="M370.75,363.2l2.9,7.86c1.9,5.12,3.49,10.08,5,14.84-3.83-12.75-8.06-25.27-12.38-37.71.3,2,.62,4,1,6,.1.27.21.55.32.82Z"/><path class="cls-1" d="M241.23,12.15l-2.9-2.3-.68-.54L237,8.85,235.69,8l-2.41-1.61a25.05,25.05,0,0,0-2.19-1.28l-2-1.09a19.9,19.9,0,0,0-1.78-.9l-3-1.29C220.72.48,218.85.16,217.73.21c-1.76.05-1.54.8-3.34,1a84.28,84.28,0,0,1,8.91,2.47A104.92,104.92,0,0,1,241.23,12.15Z"/><path class="cls-1" d="M154.62,66.11c.07,1.91.15,3.81.23,5.71l.05,1.43c0,.46.14,1,.19,1.53l.46,3.14.9,6.23c.26,2,.67,4.16,1,6.26s.76,4.17,1.13,6.25c.81,4.16,1.33,8.19,2,12.19.31,2,.61,4,.92,6l.1.7.07.48.12,1c.08.63.17,1.27.25,1.9q.51,3.7,1,7.32c2,15.2,3.13,28.7,4.72,38.66.12-2.25.12-4.5.14-6.73s.08-4.47.05-6.69c-.1-4.44-.12-8.85-.38-13.23-.1-2.19-.16-4.37-.35-6.55s-.32-4.39-.48-6.57c-.26-2.7-.53-5.39-.79-8.08l-.1-1-.05-.51-.09-.69-.39-3-.78-5.91c-.46-3.92-1.14-7.89-1.78-11.84q-.48-3-.95-5.91T161,82.38c-.26-1.93-.51-3.85-.77-5.78l-.21-5.26-.11-2.63-.05-1.32,0-.65,0-.6c.05-1.57.1-3.13.16-4.69A91.86,91.86,0,0,1,162,44.9a67.74,67.74,0,0,1,4.77-14.33,52.32,52.32,0,0,1,8-12.27,41.25,41.25,0,0,1,5.68-5.22,33.57,33.57,0,0,1,7.17-4.14,32.79,32.79,0,0,1,8.11-2.28,41.66,41.66,0,0,1,7.83-.32,50.85,50.85,0,0,1,14.21,3.08A64.53,64.53,0,0,1,230.8,16a88.61,88.61,0,0,1,12.89,10l1.63,1.49.81.75.81.86,3.25,3.41c1.1,1.06,2.15,2.47,3.23,3.72s2.16,2.53,3.22,3.9c4.24,5.54,8.52,11.42,12.6,17.94-1-1.85-2-3.8-3.06-5.58L263,47c-1.05-1.86-2.17-3.48-3.27-5.2l-1.66-2.56c-.55-.85-1.1-1.72-1.68-2.48L253,32l-.85-1.19c-.29-.39-.59-.71-.88-1.08l-1.76-2.12-1.77-2.13c-.3-.35-.59-.72-.89-1.05l-.89-.94-3.6-3.76A94.12,94.12,0,0,0,227.79,8.12,61.9,61.9,0,0,0,212.5,1.21a11.49,11.49,0,0,0,1.89,0C213.61,1,212.84.87,212,.73A54.38,54.38,0,0,0,198.77.2a44.4,44.4,0,0,0-7.64,1.35c-1.33.35-2.67.78-4,1.26l-2,.81-1.93.9a44.19,44.19,0,0,0-12.7,9.7A53.55,53.55,0,0,0,162,26.9a68.44,68.44,0,0,0-5.31,15.33,72.38,72.38,0,0,0-1.4,8.65L155,53.14l-.13,1.14-.06,1.27-.24,5.1c0,.87-.11,1.64-.09,2.59Z"/></g></g></svg>