<svg xmlns="http://www.w3.org/2000/svg" xmlns:xlink="http://www.w3.org/1999/xlink" version="1.1" id="图层_1" x="0px" y="0px" viewBox="0 0 400.5 93" style="enable-background:new 0 0 400.5 93;" xml:space="preserve">
<style type="text/css">
  .st0{fill:#ffffff;}
  .st1{fill:#ffffff;}
  .st2{fill:#ffffff;}
</style>
<g>
  <g>
    <polygon class="st0" points="-0.1,16.3 13.4,8.4 27,0.6 27,16.3 27,32 13.4,24.1    "/>
    <polygon class="st1" points="108.5,16.3 95,24.1 81.4,32 81.4,16.3 81.4,0.6 95,8.4     "/>
    <polygon class="st1" points="54.2,16.3 40.6,24.1 27,32 27,16.3 27,0.6 40.6,8.4    "/>
    <polygon class="st0" points="54.2,16.3 67.8,8.4 81.4,0.6 81.4,16.3 81.4,32 67.8,24.1    "/>
    <polygon class="st0" points="27,32 40.6,24.1 54.2,16.3 54.2,32 54.2,47.7 40.6,39.8    "/>
    <polygon class="st1" points="81.4,32 67.8,39.8 54.2,47.7 54.2,32 54.2,16.3 67.8,24.1    "/>
    <polygon class="st0" points="-0.1,61.8 13.4,53.9 27,46.1 27,61.8 27,77.5 13.4,69.6    "/>
    <polygon class="st1" points="108.5,61.8 95,69.6 81.4,77.5 81.4,61.8 81.4,46.1 95,53.9     "/>
    <polygon class="st1" points="54.2,61.8 40.6,69.6 27,77.5 27,61.8 27,46.1 40.6,53.9    "/>
    <polygon class="st0" points="54.2,61.8 67.8,53.9 81.4,46.1 81.4,61.8 81.4,77.5 67.8,69.6    "/>
    <polygon class="st0" points="27,77.5 40.6,69.6 54.2,61.8 54.2,77.5 54.2,93.2 40.6,85.3    "/>
    <polygon class="st1" points="81.4,77.5 67.8,85.3 54.2,93.2 54.2,77.5 54.2,61.8 67.8,69.6    "/>
  </g>
  
</g>
</svg>